<?xml version="1.0" standalone="no"?>
<!DOCTYPE svg PUBLIC "-//W3C//DTD SVG 20010904//EN"
 "http://www.w3.org/TR/2001/REC-SVG-20010904/DTD/svg10.dtd">
<svg version="1.0" xmlns="http://www.w3.org/2000/svg"
 width="1428.000000pt" height="1428.000000pt" viewBox="0 0 1428.000000 1428.000000"
 preserveAspectRatio="xMidYMid meet">
<metadata>
Created by potrace 1.11, written by Peter Selinger 2001-2013
</metadata>
<g transform="translate(0.000000,1428.000000) scale(0.100000,-0.100000)"
fill="#000000" stroke="none">
<path d="M6740 14259 c-1559 -87 -3045 -684 -4230 -1698 -852 -729 -1528
-1656 -1952 -2676 -904 -2175 -676 -4678 604 -6632 467 -712 1036 -1319 1709
-1823 155 -116 412 -290 579 -392 854 -520 1849 -862 2845 -977 754 -88 1515
-59 2235 85 1057 212 2027 645 2886 1290 446 334 818 686 1176 1111 1122 1331
1714 3008 1675 4743 -13 568 -79 1063 -212 1590 -320 1265 -951 2375 -1880
3305 -494 494 -1024 890 -1640 1224 -237 129 -225 123 -375 191 -869 399
-1690 604 -2645 660 -195 11 -563 11 -775 -1z m975 -114 c176 -14 214 -19 440
-49 240 -33 654 -120 902 -192 711 -204 1364 -505 1978 -913 759 -503 1459
-1204 1959 -1961 665 -1005 1048 -2108 1152 -3322 21 -243 24 -843 6 -1073
-77 -950 -303 -1781 -707 -2600 -255 -517 -545 -963 -911 -1401 -257 -307
-589 -638 -901 -899 -1777 -1485 -4201 -1993 -6438 -1349 -1300 373 -2447
1104 -3348 2131 -905 1031 -1487 2309 -1671 3673 -46 343 -59 531 -60 915 -1
355 9 560 40 830 128 1119 508 2158 1135 3102 505 762 1186 1443 1949 1950
1060 706 2247 1100 3530 1173 209 12 724 4 945 -15z"/>
<path d="M7715 12194 c-16 -8 -37 -22 -46 -30 -18 -16 -55 -121 -50 -143 2
-10 -4 -12 -23 -7 -14 3 -37 9 -50 12 -22 5 -26 2 -35 -34 -6 -22 -18 -45 -26
-52 -16 -13 -21 -61 -8 -74 4 -4 8 -22 8 -41 1 -18 7 -41 15 -50 12 -15 16
-33 21 -115 2 -19 9 -44 16 -55 17 -25 17 -45 -1 -45 -13 0 -26 -20 -26 -41 0
-5 7 -9 15 -9 8 0 15 5 15 10 0 6 7 10 15 10 8 0 15 -4 15 -9 0 -5 -7 -11 -15
-15 -8 -3 -15 -12 -15 -20 0 -17 53 -32 58 -17 2 6 9 11 16 11 7 0 18 17 26
38 16 44 24 24 12 -33 -7 -34 -12 -40 -34 -41 -47 -2 -55 -10 -54 -56 1 -34 4
-43 19 -42 9 1 17 -3 17 -9 0 -6 10 -1 23 11 34 32 43 28 56 -24 14 -54 3 -77
-27 -56 -9 7 -25 15 -34 18 -10 4 -18 13 -18 20 0 8 -9 14 -19 14 -23 0 -64
48 -57 67 3 7 -1 13 -9 13 -9 0 -15 -10 -15 -25 0 -38 -36 -34 -42 5 -4 29 24
72 53 82 7 2 9 9 6 15 -10 16 -45 4 -66 -23 -25 -32 -31 -30 -31 7 0 24 -3 30
-16 25 -9 -3 -18 -6 -20 -6 -2 0 -4 -11 -4 -25 0 -14 -4 -25 -10 -25 -5 0 -10
-9 -10 -20 0 -17 -7 -20 -46 -20 -25 0 -43 4 -40 9 3 4 16 6 29 4 34 -7 42 21
15 47 -25 23 -37 22 -52 -5 -6 -11 -19 -26 -28 -33 -10 -7 -15 -19 -11 -28 7
-20 -15 -62 -36 -67 -17 -4 16 -21 64 -33 32 -8 32 9 0 26 -17 9 -22 17 -15
24 5 5 10 19 10 30 0 16 3 17 12 8 17 -17 86 -15 104 2 8 8 14 22 14 30 0 9 8
16 20 16 13 0 20 -7 20 -19 0 -11 5 -23 10 -26 15 -10 12 -25 -7 -32 -20 -8
-43 -28 -43 -38 0 -4 -9 -19 -19 -34 -19 -26 -19 -29 -3 -53 24 -36 48 -58 64
-58 7 0 19 -9 26 -21 14 -22 13 -24 -34 -76 -22 -24 -60 -22 -50 2 2 6 0 18
-5 26 -6 10 -9 10 -9 2 0 -22 -26 -14 -38 12 -12 27 -31 32 -49 14 -6 -6 -21
-8 -34 -4 -30 10 -35 8 -31 -13 3 -14 1 -15 -9 -4 -24 23 -30 12 -8 -17 25
-35 22 -65 -9 -69 -17 -3 -22 2 -22 17 0 12 -6 21 -15 21 -8 0 -15 -4 -15 -10
0 -5 -6 -7 -14 -4 -24 9 -66 -40 -66 -77 0 -38 26 -83 41 -73 6 4 6 10 -1 19
-8 10 -5 13 15 11 24 -1 26 -4 21 -31 -4 -16 -12 -33 -19 -37 -9 -6 -9 -8 1
-8 8 0 16 9 19 21 5 17 11 20 32 14 14 -3 36 -7 49 -8 37 -3 48 -34 23 -61
-12 -12 -21 -27 -21 -33 0 -17 -20 -21 -73 -16 -47 5 -48 5 -35 -16 10 -16 10
-25 1 -40 -10 -16 -9 -20 12 -23 14 -3 22 -1 19 6 -3 7 6 12 18 13 13 1 33 5
45 8 26 6 31 -8 35 -95 l3 -55 38 1 c29 0 37 -3 37 -18 0 -10 -4 -18 -10 -18
-5 0 -10 -7 -10 -15 0 -8 4 -15 9 -15 5 0 14 7 21 15 9 10 31 15 72 15 32 0
57 4 54 8 -3 5 8 16 24 25 19 12 31 14 35 6 4 -5 13 -8 21 -5 20 7 43 -20 37
-44 -3 -11 0 -27 7 -35 7 -8 9 -15 5 -15 -4 0 -15 10 -24 21 -15 19 -21 20
-40 10 -15 -8 -20 -18 -16 -28 3 -9 0 -20 -7 -25 -8 -6 -5 -7 10 -3 16 5 36
-2 69 -24 42 -28 49 -30 62 -16 8 8 11 18 7 22 -4 4 -12 1 -17 -7 -9 -12 -10
-12 -5 3 3 10 6 28 6 40 0 17 2 19 9 7 6 -8 8 -17 5 -21 -2 -4 3 -10 12 -13
12 -4 15 -2 10 9 -3 8 0 15 7 16 7 0 50 45 97 101 157 187 226 229 380 231
119 2 139 -7 247 -114 48 -46 101 -88 128 -100 25 -11 49 -27 52 -35 3 -8 9
-14 14 -14 5 0 17 -8 27 -17 67 -64 109 -90 125 -74 7 7 5 12 -7 17 -11 4 -13
9 -7 13 6 4 8 17 4 29 -3 12 -8 20 -12 17 -4 -2 -5 26 -3 63 6 107 -28 295
-80 442 -11 30 -25 78 -32 105 -23 90 -170 440 -196 465 -3 3 -12 18 -20 34
-17 33 -140 157 -212 214 -26 20 -47 42 -48 47 0 6 -12 18 -27 27 -16 9 -60
48 -99 87 -40 39 -76 71 -82 71 -5 0 -20 14 -33 31 -44 58 -101 119 -113 119
-6 0 -24 -7 -41 -16z m244 -400 c18 -13 22 -23 17 -44 -4 -24 -1 -29 20 -34
43 -11 22 -31 -30 -29 -54 2 -76 16 -76 49 0 12 -5 26 -11 30 -6 4 1 13 18 24
35 23 34 23 62 4z m-678 -707 c-10 -9 -11 -8 -5 6 3 10 9 15 12 12 3 -3 0 -11
-7 -18z m-60 -133 c-2 -25 -7 -42 -11 -37 -9 9 -1 83 9 83 3 0 5 -21 2 -46z
m30 -1 c-10 -17 -10 -16 -11 3 0 23 13 41 18 25 2 -6 -1 -18 -7 -28z m26 5
c-3 -8 -6 -5 -6 6 -1 11 2 17 5 13 3 -3 4 -12 1 -19z m-33 -214 c-14 -14 -28
-23 -31 -20 -8 7 39 56 49 50 5 -3 -3 -17 -18 -30z"/>
<path d="M7300 11290 c0 -5 11 -10 25 -10 14 0 25 5 25 10 0 6 -11 10 -25 10
-14 0 -25 -4 -25 -10z"/>
<path d="M6462 11153 c-10 -4 -9 -9 5 -20 17 -14 17 -14 -2 -7 -30 10 -76 13
-70 4 3 -4 13 -6 24 -3 10 2 25 -3 34 -11 8 -9 20 -16 26 -16 6 0 11 -6 11
-12 0 -7 12 -14 27 -15 23 -1 25 0 9 9 -12 7 -16 17 -12 32 6 24 -12 59 -21
39 -2 -7 -9 -13 -14 -13 -6 0 -7 5 -4 10 7 11 6 11 -13 3z"/>
<path d="M9708 11103 c-22 -5 -24 -20 -3 -20 8 0 16 6 19 14 3 7 4 12 3 12 -1
-1 -10 -3 -19 -6z"/>
<path d="M9650 11054 c-66 -29 -102 -81 -114 -167 -4 -26 -11 -45 -16 -42 -5
3 -26 3 -47 -1 -34 -5 -41 -11 -56 -48 -9 -22 -17 -50 -17 -61 -1 -20 -69 -77
-112 -94 -13 -5 -38 -23 -56 -39 -18 -17 -49 -33 -68 -37 -44 -8 -134 10 -196
40 -27 12 -48 18 -48 14 0 -5 5 -9 10 -9 5 0 9 -3 8 -7 -4 -13 24 -87 38 -103
7 -9 11 -26 7 -38 -3 -12 -2 -30 2 -39 5 -10 8 -21 7 -25 -1 -4 15 -15 36 -25
20 -9 41 -24 46 -32 16 -26 66 -71 80 -71 20 0 273 -170 331 -223 49 -44 80
-95 169 -287 32 -70 58 -190 50 -239 -7 -42 14 -73 33 -49 16 20 40 184 42
280 1 48 6 99 11 113 15 40 12 383 -6 550 -14 139 -20 472 -9 555 4 30 3 31
-4 10 l-9 -25 -1 28 c-1 19 -12 40 -32 58 -36 33 -33 33 -79 13z"/>
<path d="M6657 10993 c-11 -10 -8 -51 3 -58 6 -4 10 8 10 29 0 37 -2 41 -13
29z"/>
<path d="M6217 10973 c-4 -6 0 -16 8 -23 8 -7 12 -17 9 -22 -4 -6 4 -5 16 2
20 11 22 10 17 -3 -7 -20 21 -31 39 -16 8 6 11 16 7 22 -3 6 -1 7 5 3 7 -4 12
-1 12 7 0 10 -7 13 -19 10 -13 -3 -21 1 -24 14 -4 16 -5 16 -6 -2 -1 -29 -40
-30 -50 -3 -4 13 -10 17 -14 11z"/>
<path d="M6600 10971 c0 -6 5 -13 10 -16 6 -3 10 1 10 9 0 9 -4 16 -10 16 -5
0 -10 -4 -10 -9z"/>
<path d="M6333 10923 c-7 -2 -13 -13 -13 -23 0 -10 -6 -20 -12 -23 -8 -2 10
-25 42 -56 30 -29 54 -59 52 -67 -3 -12 1 -13 16 -5 20 11 36 40 27 49 -2 3
-7 -3 -11 -12 -7 -18 -24 -22 -24 -6 0 6 -12 22 -26 35 -15 14 -21 25 -14 25
8 0 24 -9 36 -21 l21 -20 6 21 c3 12 3 19 0 16 -6 -6 -32 23 -33 38 0 4 7 5
16 2 8 -3 12 -2 9 4 -3 6 -13 10 -21 10 -8 0 -13 4 -10 9 3 5 -2 15 -11 22
-14 12 -16 12 -8 -1 6 -12 5 -13 -6 -2 -14 13 -17 13 -36 5z"/>
<path d="M6700 10861 c1 -19 27 -37 48 -32 22 6 21 7 -12 22 -20 9 -36 14 -36
10z"/>
<path d="M6837 10864 c-13 -13 -7 -24 14 -24 11 0 19 5 17 12 -5 14 -22 21
-31 12z"/>
<path d="M6881 10834 c0 -11 3 -14 6 -6 3 7 2 16 -1 19 -3 4 -6 -2 -5 -13z"/>
<path d="M6791 10824 c0 -11 3 -14 6 -6 3 7 2 16 -1 19 -3 4 -6 -2 -5 -13z"/>
<path d="M6734 10794 c-18 -15 -18 -15 8 -10 28 6 48 -8 26 -18 -10 -5 -10 -7
0 -12 6 -3 12 -16 12 -28 0 -15 6 -22 18 -21 30 2 31 31 1 40 -12 4 -18 12
-15 21 7 19 -3 44 -18 44 -7 0 -21 -7 -32 -16z"/>
<path d="M6454 10773 c-5 -19 -2 -30 11 -39 10 -8 15 -20 11 -29 -5 -15 14
-45 28 -45 3 0 6 12 6 28 0 22 -2 24 -11 12 -8 -12 -10 -9 -6 12 2 17 0 25 -6
21 -6 -4 -8 2 -4 16 4 17 2 21 -9 17 -12 -4 -14 -1 -9 14 4 11 4 20 1 20 -3 0
-9 -12 -12 -27z"/>
<path d="M6938 10763 c7 -3 16 -2 19 1 4 3 -2 6 -13 5 -11 0 -14 -3 -6 -6z"/>
<path d="M4157 10733 c4 -9 -8 -13 -40 -13 -45 0 -75 -19 -62 -40 4 -6 2 -17
-5 -25 -19 -23 -30 -181 -30 -460 0 -245 11 -471 25 -507 4 -9 16 -13 34 -10
16 2 31 -1 35 -6 4 -6 -2 -8 -16 -4 -14 3 -19 2 -14 -6 4 -7 22 -12 39 -12 29
0 38 7 75 64 42 65 135 152 267 250 38 29 85 72 102 97 18 24 62 74 98 111 41
42 65 76 65 90 1 27 22 58 39 58 7 0 11 6 9 13 -3 6 -9 12 -14 12 -5 0 -14 3
-19 7 -6 4 -39 6 -72 6 -60 -1 -64 0 -105 40 -24 23 -46 42 -51 42 -8 0 19 46
38 65 5 6 22 16 38 22 36 17 34 37 -7 62 -23 15 -50 21 -89 21 -41 0 -58 4
-65 16 -7 12 -21 15 -65 13 -52 -4 -56 -2 -51 15 4 12 2 16 -5 12 -6 -4 -11
-3 -11 3 0 5 6 12 13 15 6 3 2 3 -9 1 -23 -6 -41 19 -23 30 13 9 1 25 -18 25
-9 0 -13 -6 -9 -15 7 -19 -40 -33 -57 -16 -8 8 -4 11 17 11 40 0 22 17 -23 22
-28 2 -37 0 -34 -9z m-54 -35 c-13 -6 -23 -15 -23 -20 0 -5 -5 -6 -10 -3 -17
10 9 35 34 34 21 0 21 0 -1 -11z m297 -80 c0 -4 -18 -8 -41 -8 -22 0 -38 4
-35 8 2 4 21 8 40 8 20 0 36 -4 36 -8z m15 -168 c3 -5 2 -17 -3 -26 -8 -14
-10 -12 -14 10 -5 26 5 35 17 16z"/>
<path d="M6960 10696 c0 -12 11 -16 46 -16 59 0 55 24 -4 28 -33 2 -42 0 -42
-12z"/>
<path d="M6863 10655 c-6 -14 -7 -25 -2 -25 11 0 22 25 17 39 -1 6 -8 -1 -15
-14z"/>
<path d="M8090 10673 c-54 -18 -92 -42 -138 -87 -52 -49 -88 -97 -62 -81 6 4
21 -2 33 -13 24 -21 70 -36 104 -33 25 3 34 -9 35 -49 1 -22 6 -30 19 -30 10
0 21 -4 24 -10 3 -5 0 -10 -8 -10 -8 0 -20 -14 -26 -31 -6 -17 -15 -28 -21
-24 -6 3 -8 11 -4 16 3 6 -2 16 -12 24 -16 11 -23 9 -51 -12 -36 -28 -43 -52
-15 -49 12 1 16 -5 14 -21 -2 -14 4 -23 18 -28 11 -3 20 -13 20 -21 0 -8 4
-14 9 -14 4 0 6 10 4 23 -3 13 2 29 11 36 16 14 36 7 36 -12 0 -14 54 -47 77
-47 11 0 14 6 9 26 -15 58 66 73 117 22 l32 -32 3 45 c2 37 8 47 33 62 17 9
36 17 42 17 7 0 23 10 37 23 25 22 55 27 81 12 35 -22 -61 75 -101 101 -25 16
-79 61 -121 101 -87 83 -149 113 -199 96z"/>
<path d="M6835 10660 c-3 -5 -2 -10 4 -10 5 0 13 5 16 10 3 6 2 10 -4 10 -5 0
-13 -4 -16 -10z"/>
<path d="M6880 10593 c0 -4 5 -15 10 -23 8 -13 10 -13 10 2 0 9 -4 20 -10 23
-5 3 -10 3 -10 -2z"/>
<path d="M6940 10574 c0 -14 -4 -23 -10 -19 -5 3 -10 -3 -10 -13 0 -11 6 -22
13 -25 8 -3 13 9 15 39 1 24 0 44 -3 44 -3 0 -5 -12 -5 -26z"/>
<path d="M6960 10585 c0 -8 5 -15 10 -15 6 0 10 7 10 15 0 8 -4 15 -10 15 -5
0 -10 -7 -10 -15z"/>
<path d="M7050 10591 c0 -6 5 -13 10 -16 6 -3 10 1 10 9 0 9 -4 16 -10 16 -5
0 -10 -4 -10 -9z"/>
<path d="M7027 10583 c-4 -3 -7 -11 -7 -17 0 -6 5 -5 12 2 6 6 9 14 7 17 -3 3
-9 2 -12 -2z"/>
<path d="M7040 10541 c0 -12 5 -21 10 -21 6 0 10 6 10 14 0 8 -4 18 -10 21 -5
3 -10 -3 -10 -14z"/>
<path d="M6946 10465 c4 -8 8 -15 10 -15 2 0 4 7 4 15 0 8 -4 15 -10 15 -5 0
-7 -7 -4 -15z"/>
<path d="M7151 10464 c-7 -8 -10 -18 -7 -21 7 -7 36 16 36 28 0 13 -13 10 -29
-7z"/>
<path d="M6976 10445 c-3 -10 -4 -20 -1 -23 3 -3 5 0 5 7 0 7 5 9 10 6 6 -4 8
-15 5 -26 -8 -23 -2 -24 19 -3 18 17 22 39 5 29 -6 -4 -16 1 -23 10 -12 17
-13 17 -20 0z"/>
<path d="M7200 10450 c-11 -7 -7 -10 18 -10 17 0 32 5 32 10 0 13 -30 13 -50
0z"/>
<path d="M7021 10393 c-7 -8 -11 -16 -10 -17 2 -2 13 -9 24 -15 12 -8 14 -11
4 -7 -14 4 -16 0 -10 -22 9 -34 30 -41 24 -8 -4 19 0 25 18 29 23 4 23 4 2 6
-13 0 -25 10 -30 25 -7 21 -10 22 -22 9z"/>
<path d="M7107 10354 c-26 -26 95 -34 129 -9 17 13 13 14 -52 15 -39 0 -74 -3
-77 -6z"/>
<path d="M7077 10333 c-12 -11 -7 -23 9 -23 13 0 14 -3 5 -14 -9 -10 -8 -15 3
-19 21 -8 25 25 6 45 -9 10 -20 15 -23 11z"/>
<path d="M8567 10297 c-3 -7 3 -13 13 -13 10 0 16 6 13 13 -3 7 -9 13 -13 13
-4 0 -10 -6 -13 -13z"/>
<path d="M11456 10252 c1 -20 6 -49 10 -64 l9 -26 24 19 c22 18 22 19 3 19
-22 0 -32 18 -32 55 0 13 -3 26 -8 29 -4 2 -7 -12 -6 -32z"/>
<path d="M8405 10257 c-4 -15 -18 -36 -32 -47 -23 -18 -24 -20 -8 -50 9 -17
14 -34 11 -39 -8 -12 44 -53 60 -47 16 6 18 22 4 31 -5 3 -10 27 -11 53 0 26
-4 65 -8 87 -8 39 -8 39 -16 12z"/>
<path d="M7070 10260 c0 -5 5 -10 10 -10 6 0 10 5 10 10 0 6 -4 10 -10 10 -5
0 -10 -4 -10 -10z"/>
<path d="M11420 10263 c0 -6 -8 -13 -17 -15 -15 -3 -14 -5 4 -10 27 -7 36 2
22 22 -5 9 -9 10 -9 3z"/>
<path d="M8647 10241 c2 -10 11 -18 19 -18 19 0 18 10 -5 24 -16 10 -18 9 -14
-6z"/>
<path d="M7225 10218 c9 -41 17 -50 38 -42 23 9 21 24 -3 24 -15 0 -20 7 -20
25 0 14 -5 25 -11 25 -7 0 -8 -12 -4 -32z"/>
<path d="M8694 10221 c4 -6 2 -12 -3 -12 -6 -1 -15 -3 -21 -4 -5 -1 -21 -3
-35 -4 -30 -1 -34 -27 -7 -47 15 -12 15 -13 -10 -14 -15 0 -30 5 -33 10 -10
17 -25 11 -25 -10 0 -17 7 -20 44 -20 l44 0 7 -87 c4 -49 7 -101 8 -118 2 -34
35 -78 54 -71 7 3 15 1 18 -4 4 -6 10 -10 16 -10 5 0 4 8 -2 18 -9 15 -8 23 7
40 23 27 29 27 53 3 18 -18 18 -20 3 -24 -9 -3 -4 -6 13 -7 17 -1 23 -4 15 -7
-39 -12 -103 -49 -124 -70 -18 -17 -26 -20 -30 -11 -3 7 -3 -3 0 -22 7 -39 2
-38 -21 5 l-16 30 6 -37 c7 -36 7 -36 -27 -33 -19 1 -41 -4 -50 -13 -16 -14
-18 -13 -18 1 0 12 -8 17 -25 17 -24 0 -25 2 -19 35 4 24 2 39 -9 50 -21 21
-27 19 -27 -10 0 -15 -5 -23 -12 -20 -7 3 -20 0 -28 -5 -13 -9 -13 -11 0 -20
8 -5 21 -8 28 -5 7 3 12 -4 12 -18 0 -16 9 -26 30 -34 19 -7 30 -18 30 -31 0
-11 7 -22 15 -26 8 -3 15 -11 14 -18 0 -10 -2 -10 -6 0 -4 10 -9 9 -20 -5 -13
-17 -14 -17 -8 5 4 12 2 22 -3 22 -12 0 -42 -45 -42 -64 0 -8 -8 -13 -17 -11
-10 1 -12 0 -5 -2 6 -3 12 -9 12 -14 0 -5 7 -9 15 -9 9 0 18 -12 22 -30 3 -16
9 -30 14 -30 5 0 9 -23 9 -50 0 -37 5 -57 20 -72 22 -24 25 -39 21 -109 -2
-26 2 -50 8 -53 18 -12 12 -36 -9 -36 -11 0 -20 -5 -20 -10 0 -6 -27 -9 -65
-8 -38 1 -60 5 -53 10 7 4 9 8 3 8 -5 0 -17 -4 -25 -10 -9 -6 -17 -5 -23 3 -4
7 -5 -6 -2 -28 4 -34 4 -36 -5 -16 -10 23 -11 23 -32 5 -11 -11 -27 -33 -34
-50 -7 -17 -20 -36 -28 -44 -32 -26 -9 -120 30 -120 17 0 17 1 1 34 -8 14 -17
23 -20 19 -4 -3 -7 6 -7 20 0 22 4 27 26 27 19 0 25 -4 20 -15 -7 -20 28 -39
42 -22 6 7 7 18 2 26 -5 8 -3 24 3 38 9 21 16 24 40 19 16 -3 33 -6 38 -6 5 0
9 -19 9 -42 1 -42 1 -43 15 -18 20 34 20 100 0 100 -8 0 -15 7 -15 15 0 11 11
15 40 15 29 0 40 -4 40 -15 0 -9 9 -15 25 -15 16 0 25 -6 25 -16 0 -12 -7 -15
-25 -12 -24 5 -25 4 -25 -53 0 -56 1 -59 24 -59 14 0 28 -4 31 -10 4 -6 -7
-10 -24 -10 -25 0 -31 -4 -31 -21 0 -15 -5 -19 -17 -15 -10 2 -37 7 -59 11
-35 5 -42 3 -47 -12 -2 -10 -8 -26 -12 -35 -6 -14 -2 -18 16 -19 22 0 23 -1 4
-8 -17 -7 -11 -13 38 -36 31 -15 57 -33 57 -41 0 -7 -13 -23 -30 -36 -50 -37
-31 -98 26 -84 24 6 26 5 20 -18 -3 -14 -17 -37 -31 -52 -14 -15 -23 -29 -21
-31 10 -10 46 9 46 24 0 9 3 13 7 10 3 -4 0 -19 -7 -33 -12 -21 -12 -27 -1
-33 16 -10 84 4 89 18 7 21 22 11 22 -15 0 -28 -46 -114 -61 -114 -16 0 -10
-18 9 -24 9 -3 0 -4 -20 -3 -21 2 -38 -1 -38 -5 0 -4 -9 -8 -20 -8 -13 0 -18
-5 -14 -15 5 -11 2 -13 -9 -9 -10 3 -27 -5 -43 -21 -32 -32 -58 -29 -62 8 -3
24 -7 27 -43 27 -28 0 -39 4 -39 15 0 20 -13 19 -41 -4 -21 -17 -22 -21 -9
-37 9 -11 15 -39 15 -73 l0 -56 34 -3 c19 -2 44 -10 55 -18 29 -20 44 -18 82
11 37 28 104 34 124 11 6 -8 18 -12 25 -10 9 4 16 -5 20 -28 5 -27 14 -36 47
-50 39 -17 41 -17 69 3 16 11 53 45 81 75 28 30 55 54 59 54 5 0 53 35 106 78
54 43 114 89 133 102 55 38 238 189 242 199 2 5 37 46 78 91 92 101 146 178
162 233 7 25 11 96 10 176 -2 120 -5 140 -28 192 -14 32 -32 60 -40 63 -8 3
-14 15 -14 26 0 24 -21 67 -60 125 -15 22 -31 51 -35 65 -10 34 -75 129 -151
222 -35 43 -64 81 -64 86 0 15 -92 106 -140 138 -87 59 -158 94 -163 81 -3 -7
-6 -4 -6 6 -1 10 -5 15 -11 12 -5 -3 -10 -2 -10 3 0 5 -19 22 -42 38 -24 16
-45 31 -48 34 -7 7 -59 30 -68 30 -4 0 0 -5 8 -10 12 -8 11 -10 -7 -10 -13 0
-22 5 -20 11 1 6 -4 14 -12 17 -8 3 -11 0 -7 -7z m-89 -581 c3 -5 2 -10 -4
-10 -5 0 -13 5 -16 10 -3 6 -2 10 4 10 5 0 13 -4 16 -10z m-5 -30 c0 -5 -5
-10 -11 -10 -5 0 -7 5 -4 10 3 6 8 10 11 10 2 0 4 -4 4 -10z m-80 -40 c0 -5
-5 -10 -11 -10 -5 0 -7 5 -4 10 3 6 8 10 11 10 2 0 4 -4 4 -10z m120 -608 c0
-5 -13 -7 -30 -4 -16 2 -30 6 -30 8 0 2 14 4 30 4 17 0 30 -4 30 -8z m72 -43
c5 -4 8 -15 5 -25 -4 -17 -6 -17 -12 4 -4 12 -11 22 -15 22 -4 0 -5 12 -1 28
l5 27 4 -25 c2 -14 9 -28 14 -31z m-156 -76 c-10 -10 -19 5 -10 18 6 11 8 11
12 0 2 -7 1 -15 -2 -18z m69 -13 c-3 -5 -12 -10 -20 -10 -8 0 -17 5 -20 10 -4
6 5 10 20 10 15 0 24 -4 20 -10z m210 -60 c3 -5 1 -10 -4 -10 -6 0 -11 5 -11
10 0 6 2 10 4 10 3 0 8 -4 11 -10z m1 -47 c-10 -10 -19 5 -10 18 6 11 8 11 12
0 2 -7 1 -15 -2 -18z m-34 -53 c-6 -15 -11 -19 -16 -12 -4 7 -1 18 6 26 17 19
20 14 10 -14z m7 -206 c2 -2 5 -25 7 -51 3 -40 2 -43 -5 -18 -5 17 -9 22 -10
13 -2 -32 -81 -20 -81 12 0 20 23 32 45 24 18 -7 20 7 3 25 -11 11 -8 12 12 6
14 -4 27 -9 29 -11z m15 -145 c-3 -5 5 -18 18 -29 l23 -19 -27 -1 c-15 0 -38
-4 -52 -10 -21 -8 -26 -7 -26 6 0 12 -6 15 -21 11 -18 -5 -20 -1 -17 26 3 29
7 33 43 37 41 6 69 -5 59 -21z m-244 -3 c0 -2 -7 -7 -16 -10 -8 -3 -12 -2 -9
4 6 10 25 14 25 6z m-227 -43 c-7 -2 -19 -2 -25 0 -7 3 -2 5 12 5 14 0 19 -2
13 -5z m407 -37 c0 -3 -4 -8 -10 -11 -5 -3 -10 -1 -10 4 0 6 5 11 10 11 6 0
10 -2 10 -4z"/>
<path d="M11336 10211 c-4 -5 3 -7 14 -4 23 6 26 13 6 13 -8 0 -17 -4 -20 -9z"/>
<path d="M11385 10210 c3 -5 -3 -10 -14 -10 -12 0 -30 -9 -41 -20 -11 -11 -22
-15 -25 -9 -4 5 -24 -4 -46 -22 -22 -17 -37 -34 -34 -37 3 -3 19 7 35 23 29
28 30 28 30 7 0 -12 4 -22 10 -22 5 0 7 7 3 16 -4 12 -2 15 8 12 8 -3 13 -11
12 -17 -2 -6 6 -11 17 -11 16 0 20 7 20 30 0 24 4 30 21 30 25 0 59 17 59 30
0 6 -14 10 -31 10 -17 0 -28 -4 -24 -10z m-35 -61 c0 -11 -4 -17 -10 -14 -5 3
-10 13 -10 21 0 8 5 14 10 14 6 0 10 -9 10 -21z"/>
<path d="M11440 10135 c0 -8 7 -15 15 -15 8 0 15 7 15 15 0 8 -7 15 -15 15 -8
0 -15 -7 -15 -15z"/>
<path d="M11260 10120 c-13 -8 -13 -11 3 -27 16 -17 17 -16 15 10 -1 15 -3 27
-3 27 0 0 -7 -5 -15 -10z"/>
<path d="M7257 10065 c-23 -48 -22 -52 13 -51 16 1 30 4 30 9 0 4 7 7 15 7 8
0 15 6 16 13 0 6 2 19 4 28 1 9 -2 16 -9 17 -6 0 -20 3 -31 7 -17 5 -24 -1
-38 -30z"/>
<path d="M8580 10080 c0 -13 7 -20 20 -20 13 0 20 7 20 20 0 13 -7 20 -20 20
-13 0 -20 -7 -20 -20z"/>
<path d="M11125 10020 c-16 -17 -16 -20 -3 -15 9 4 19 13 22 21 7 19 2 18 -19
-6z"/>
<path d="M11440 10030 c0 -5 5 -10 10 -10 6 0 10 5 10 10 0 6 -4 10 -10 10 -5
0 -10 -4 -10 -10z"/>
<path d="M11131 9983 c-1 -12 -5 -24 -10 -28 -6 -3 -8 4 -6 15 2 13 -1 20 -11
20 -8 0 -14 -7 -14 -15 0 -8 -6 -12 -13 -9 -7 2 -20 -7 -27 -22 -8 -14 -40
-46 -70 -69 -30 -23 -61 -53 -68 -66 -8 -13 -38 -41 -68 -62 -30 -21 -54 -44
-54 -52 0 -8 -9 -19 -20 -25 -11 -6 -18 -15 -15 -20 3 -6 -1 -7 -10 -4 -9 4
-15 2 -13 -3 2 -5 -17 -30 -41 -56 -24 -25 -55 -63 -69 -83 l-24 -36 27 -70
c19 -47 42 -84 75 -118 52 -53 76 -60 126 -38 23 11 28 10 40 -7 12 -17 14
-17 14 -2 0 9 -4 17 -10 17 -5 0 -10 12 -10 26 0 14 -4 23 -10 19 -5 -3 -10
-1 -10 5 0 7 8 9 19 5 14 -4 25 3 42 27 13 18 23 39 21 45 -2 7 3 11 10 8 16
-6 65 76 103 174 26 66 28 76 17 117 -22 81 -16 117 24 154 34 30 39 32 71 22
31 -9 33 -9 21 5 -11 14 -10 15 7 10 11 -4 27 -2 35 3 13 9 13 12 -3 21 -17
10 -17 12 -2 28 12 15 13 20 3 28 -26 20 -47 22 -51 5 -2 -11 -7 -5 -14 18 -8
25 -11 29 -12 13z m67 -101 c2 -7 -2 -10 -12 -6 -9 3 -16 11 -16 16 0 13 23 5
28 -10z"/>
<path d="M6810 9967 c0 -5 7 -7 14 -4 11 4 13 1 10 -11 -5 -14 -4 -15 5 -2 16
22 13 29 -9 27 -11 -1 -20 -5 -20 -10z"/>
<path d="M11440 9970 c0 -5 5 -10 10 -10 6 0 10 5 10 10 0 6 -4 10 -10 10 -5
0 -10 -4 -10 -10z"/>
<path d="M6800 9943 c0 -5 5 -15 10 -23 8 -12 10 -11 10 8 0 12 -4 22 -10 22
-5 0 -10 -3 -10 -7z"/>
<path d="M6836 9903 c-6 -14 -5 -15 5 -6 7 7 10 15 7 18 -3 3 -9 -2 -12 -12z"/>
<path d="M11230 9910 c0 -5 4 -10 9 -10 6 0 13 5 16 10 3 6 -1 10 -9 10 -9 0
-16 -4 -16 -10z"/>
<path d="M6866 9893 c-6 -14 -5 -15 5 -6 7 7 10 15 7 18 -3 3 -9 -2 -12 -12z"/>
<path d="M11277 9843 c8 -52 13 -54 13 -5 0 23 -4 42 -9 42 -6 0 -7 -17 -4
-37z"/>
<path d="M6213 9846 c-58 -33 -85 -84 -87 -166 -1 -28 -5 -34 -18 -32 -10 2
-18 -1 -18 -6 0 -16 36 -42 58 -42 25 0 30 -30 9 -52 -7 -7 -16 -21 -20 -30
-4 -11 -17 -18 -32 -18 -45 0 -27 -17 42 -39 82 -27 93 -35 93 -72 0 -16 5
-29 10 -29 6 0 10 -6 10 -14 0 -8 12 -17 26 -20 30 -8 43 -20 63 -58 10 -19
22 -28 38 -28 14 0 23 -6 23 -15 0 -9 11 -20 25 -25 28 -11 34 -29 9 -26 -20
1 -30 -16 -44 -71 -10 -40 -13 -43 -44 -43 -30 0 -33 -3 -29 -21 4 -13 0 -26
-9 -33 -18 -14 -48 -100 -39 -114 3 -6 18 -13 33 -17 38 -10 46 -23 54 -86 6
-50 4 -56 -21 -82 -15 -15 -37 -27 -49 -27 -25 -1 -56 -22 -56 -40 0 -7 -12
-29 -27 -48 l-27 -35 34 -29 34 -28 -22 -20 c-12 -12 -22 -25 -22 -29 0 -5
-12 -11 -26 -14 -31 -5 -74 32 -74 64 0 11 -7 19 -15 19 -8 0 -15 6 -15 13 0
16 -39 16 -65 -1 -18 -12 -17 -13 15 -10 34 3 35 2 38 -34 3 -40 -11 -56 -33
-38 -22 19 -40 6 -65 -44 -21 -45 -33 -52 -83 -48 -23 2 -33 -24 -17 -43 8
-10 9 -15 1 -15 -6 0 -13 11 -17 25 -5 19 -1 30 15 44 29 25 26 31 -9 18 -23
-9 -29 -16 -25 -32 6 -18 5 -19 -5 -2 -7 10 -9 25 -6 33 3 8 2 12 -3 9 -5 -3
-13 0 -17 6 -5 8 -12 4 -24 -11 -12 -16 -23 -21 -38 -15 -21 6 -26 19 -24 55
0 11 -3 10 -14 -4 -16 -23 -18 -42 -5 -50 5 -3 12 -18 16 -33 3 -16 14 -36 22
-45 17 -19 4 -25 -13 -8 -16 16 -37 -14 -29 -40 4 -13 15 -20 30 -20 18 0 23
-4 19 -15 -7 -17 -34 -21 -34 -5 0 6 -9 10 -19 10 -14 0 -18 5 -14 19 3 12 -2
21 -14 25 -10 3 -23 9 -30 12 -6 3 -21 -5 -33 -18 -11 -13 -24 -24 -28 -24
-34 -7 -52 -19 -52 -35 0 -11 -6 -19 -14 -19 -20 0 -29 17 -14 24 7 3 -14 4
-46 1 -46 -4 -63 -2 -78 11 -10 10 -33 17 -53 16 -19 -1 -35 3 -35 8 0 13 -37
13 -45 0 -3 -5 -13 -10 -22 -10 -11 0 -14 7 -11 25 4 21 3 23 -13 14 -11 -5
-19 -14 -19 -20 0 -5 -11 -7 -25 -3 -15 4 -25 2 -25 -5 0 -6 -18 -14 -40 -17
-22 -4 -40 -10 -40 -15 0 -5 -7 -9 -15 -9 -11 0 -15 -11 -15 -39 0 -35 -3 -39
-27 -43 -27 -4 -28 -3 -24 39 2 29 -1 43 -9 43 -7 0 -10 7 -6 16 9 23 -15 74
-35 74 -9 0 -20 -11 -23 -24 -4 -18 -11 -23 -26 -19 -16 4 -20 0 -20 -20 0
-14 -4 -29 -10 -32 -5 -3 -10 -17 -10 -29 0 -13 -6 -29 -14 -35 -11 -10 -19
-7 -35 10 -12 13 -21 20 -21 16 0 -3 13 -21 30 -39 47 -52 60 -68 60 -72 0
-19 103 -227 134 -271 25 -36 26 -37 101 -169 33 -58 65 -106 71 -106 5 0 20
9 32 20 30 28 55 27 47 -2 -4 -13 -11 -27 -15 -31 -11 -12 10 -75 28 -82 9 -3
18 -2 21 3 3 4 38 23 78 42 40 18 70 37 67 42 -3 4 4 8 15 8 11 0 23 4 26 10
3 5 0 7 -8 4 -8 -3 -18 0 -22 6 -4 7 3 9 22 6 25 -5 113 27 113 40 0 3 -4 2
-10 -1 -5 -3 -11 -3 -11 2 -6 37 -5 53 5 53 6 0 4 4 -4 10 -9 6 -17 5 -23 -3
-6 -9 -7 -8 -5 2 7 25 36 37 57 24 26 -16 41 1 42 51 0 23 3 35 6 29 7 -19 73
-17 73 2 0 19 16 20 23 1 3 -8 1 -17 -6 -20 -9 -3 -9 -5 0 -5 6 -1 25 13 42
30 30 30 31 30 56 12 13 -10 25 -21 25 -25 0 -5 7 -8 15 -8 20 0 55 36 56 58
0 14 2 14 9 -3 l9 -20 1 20 c1 11 4 15 6 8 6 -13 64 15 64 31 0 5 -7 2 -17 -5
-15 -13 -15 -12 -3 8 11 16 17 19 27 11 15 -12 29 13 18 32 -3 5 -1 10 4 10 6
0 11 -8 12 -17 0 -11 3 -13 6 -5 2 6 9 12 15 12 13 0 51 30 112 88 27 26 53
47 57 47 4 0 21 12 38 28 17 15 35 27 41 27 5 0 10 14 10 30 0 27 3 30 29 30
25 0 30 4 33 28 3 24 7 27 37 27 20 0 36 6 39 14 3 10 0 12 -12 8 -9 -4 -16
-2 -16 3 0 6 5 10 11 10 7 0 9 9 6 21 -7 25 8 69 23 69 5 0 10 -7 10 -15 0 -8
5 -15 11 -15 8 0 10 15 6 46 -4 41 -2 46 20 55 32 12 31 12 35 -13 2 -13 11
-24 22 -26 15 -3 18 1 14 22 -5 25 -5 26 53 23 42 -2 60 1 64 11 7 20 7 22
-11 22 -8 0 -12 -5 -8 -11 4 -8 0 -8 -15 0 -11 7 -21 14 -21 17 0 3 5 2 12 -2
8 -5 9 -2 5 10 -4 10 -3 15 3 11 19 -12 43 13 61 61 20 52 25 99 10 90 -5 -4
-7 2 -4 12 2 10 -5 26 -16 36 -22 20 -29 70 -11 81 12 8 10 76 -3 93 -8 10 -8
16 0 20 6 4 13 16 17 28 4 12 28 31 58 45 48 22 53 28 64 73 7 26 10 54 8 61
-5 11 23 42 35 39 3 -1 5 2 4 7 -2 5 0 8 5 7 4 -1 21 6 39 15 48 25 68 21 112
-24 38 -40 39 -40 43 -18 6 45 108 34 108 -12 0 -16 4 -19 23 -14 12 4 27 13
32 19 6 8 29 11 60 9 85 -7 89 -7 117 1 21 6 27 4 32 -12 4 -11 14 -23 23 -27
23 -8 75 47 66 71 -4 12 -3 15 5 10 9 -5 9 -1 2 18 -5 15 -6 26 -1 26 10 0 9
12 -3 48 -7 20 -12 22 -39 16 -34 -7 -57 -21 -57 -35 0 -5 8 -6 18 -3 14 5 14
4 2 -4 -16 -12 -30 -7 -30 12 0 17 -33 46 -53 46 -20 0 -87 63 -87 83 0 26
-45 46 -116 51 -51 4 -74 2 -88 -9 -10 -7 -15 -18 -12 -23 7 -12 46 -23 46
-12 0 13 52 22 63 11 7 -7 3 -8 -12 -4 -15 4 -21 1 -21 -10 0 -22 -31 -37 -77
-37 -38 0 -39 1 -71 71 -33 70 -36 99 -9 99 30 0 121 -21 126 -29 9 -12 99
-22 106 -11 4 6 -1 7 -12 3 -15 -6 -14 -2 5 21 34 44 24 86 -20 86 -10 0 -26
9 -36 20 -17 20 -18 24 -21 55 0 8 -8 15 -16 15 -8 0 -15 4 -15 9 0 15 -29 21
-127 25 -101 4 -113 8 -113 38 0 12 -11 36 -25 54 -14 18 -25 37 -25 43 0 6
-7 12 -15 12 -35 3 -40 6 -37 18 4 17 -16 41 -34 41 -8 0 -23 -9 -34 -20 -21
-21 -96 -40 -157 -40 -18 0 -56 -12 -83 -26 -27 -14 -57 -23 -67 -20 -10 3
-31 32 -48 63 -29 55 -32 58 -70 60 -22 1 -50 -4 -62 -11z m275 -439 c2 -29 7
-37 18 -33 10 4 14 -3 14 -24 0 -27 -3 -30 -30 -30 -44 0 -80 20 -86 49 -3 14
-9 33 -14 42 -13 25 10 40 55 37 39 -3 40 -4 43 -41z m267 -507 c-3 -5 -16
-10 -28 -10 -18 0 -19 2 -7 10 20 13 43 13 35 0z m-338 -376 c-3 -3 -12 -4
-19 -1 -8 3 -5 6 6 6 11 1 17 -2 13 -5z m-402 -174 c3 -5 1 -10 -4 -10 -6 0
-11 5 -11 10 0 6 2 10 4 10 3 0 8 -4 11 -10z m-195 -70 c8 -5 11 -10 5 -10 -5
0 -17 5 -25 10 -8 5 -10 10 -5 10 6 0 17 -5 25 -10z m577 -82 c-3 -7 -5 -2 -5
12 0 14 2 19 5 13 2 -7 2 -19 0 -25z m-663 -290 c14 -19 14 -24 1 -38 -8 -9
-15 -24 -15 -33 0 -10 -8 -17 -20 -17 -11 0 -20 5 -20 10 0 6 -13 10 -28 10
-16 0 -31 3 -35 6 -9 10 4 34 19 34 8 0 14 5 14 10 0 6 7 10 15 10 8 0 15 7
15 15 0 23 37 18 54 -7z m-178 -30 c15 1 25 -7 34 -27 10 -25 9 -33 -6 -56
l-18 -28 -9 27 c-5 14 -12 26 -16 26 -8 0 -43 -57 -53 -85 -6 -19 -6 -19 -7 2
-1 23 -21 27 -49 10 -7 -5 -27 0 -47 13 -19 12 -35 18 -35 15 0 -4 -7 -2 -15
5 -19 16 -20 34 -1 27 10 -4 12 0 8 15 -4 15 -2 19 7 13 10 -5 11 -2 7 13 -4
11 -2 23 3 27 7 3 8 0 5 -9 -7 -19 7 -21 25 -3 11 10 13 8 8 -10 -5 -24 7 -41
17 -24 4 5 22 7 41 4 29 -5 34 -3 30 10 -4 8 -1 18 4 22 6 3 8 11 5 17 -4 7 2
7 17 2 13 -4 34 -7 45 -6z m231 -24 c-3 -3 -12 -4 -19 -1 -8 3 -5 6 6 6 11 1
17 -2 13 -5z m93 -88 c0 -2 -7 -6 -15 -10 -8 -3 -15 -1 -15 4 0 6 7 10 15 10
8 0 15 -2 15 -4z m-416 -42 c3 -8 2 -12 -4 -9 -6 3 -10 10 -10 16 0 14 7 11
14 -7z m21 -64 c3 -5 1 -10 -4 -10 -6 0 -11 5 -11 10 0 6 2 10 4 10 3 0 8 -4
11 -10z m-121 -185 c-10 -8 -26 -14 -34 -15 -8 0 -4 6 10 14 34 19 48 20 24 1z
m-74 -41 c0 -2 -7 -4 -15 -4 -8 0 -15 4 -15 10 0 5 7 7 15 4 8 -4 15 -8 15
-10z"/>
<path d="M11240 9850 c0 -5 4 -10 9 -10 6 0 13 5 16 10 3 6 -1 10 -9 10 -9 0
-16 -4 -16 -10z"/>
<path d="M2752 9818 c7 -13 17 -26 23 -30 12 -9 37 11 29 24 -4 6 -10 5 -15
-3 -5 -8 -9 -9 -9 -4 0 6 -9 16 -20 23 -19 12 -20 11 -8 -10z"/>
<path d="M4055 9640 c3 -5 8 -10 11 -10 2 0 4 5 4 10 0 6 -5 10 -11 10 -5 0
-7 -4 -4 -10z"/>
<path d="M4083 9633 c4 -3 -1 -12 -11 -20 -15 -13 -15 -13 6 -3 19 9 23 30 5
30 -4 0 -3 -3 0 -7z"/>
<path d="M11137 9605 c-8 -8 -18 -11 -22 -7 -4 4 -4 -3 -1 -15 4 -13 4 -23 -1
-23 -5 0 -17 -13 -26 -30 -10 -16 -25 -37 -34 -46 -10 -10 -17 -34 -17 -64 -1
-49 -10 -70 -23 -55 -5 4 -2 10 5 12 6 3 12 14 12 26 0 20 -2 19 -19 -8 -10
-16 -14 -31 -9 -33 4 -2 8 -8 8 -14 0 -6 -6 -8 -14 -5 -10 4 -16 -2 -18 -21
-2 -18 -9 -27 -20 -26 -14 1 -15 -3 -7 -23 13 -34 11 -40 -5 -17 -15 19 -15
19 -33 0 -16 -16 -16 -18 -1 -13 9 3 23 -2 34 -14 16 -18 16 -19 -5 -19 -13 0
-19 -4 -16 -11 4 -6 21 -9 38 -7 20 1 31 -2 30 -9 -2 -6 5 -29 14 -50 16 -37
16 -37 23 -13 5 21 14 26 58 33 29 5 50 13 47 17 -3 5 -12 7 -20 4 -21 -8 -85
15 -85 31 0 9 6 12 15 9 22 -9 30 39 12 76 -16 31 -10 39 11 18 14 -14 15 -10
12 50 -1 36 1 42 19 42 18 0 21 -6 21 -40 0 -23 5 -40 11 -40 7 0 18 -8 25
-17 13 -17 15 -17 27 -1 8 10 17 15 20 12 3 -4 13 -4 21 -1 13 5 13 10 -1 37
-18 38 -29 105 -17 113 5 3 8 26 6 51 -4 44 -5 46 -36 46 l-31 1 28 24 c15 13
27 27 27 30 0 11 -49 4 -63 -10z m-36 -118 c-16 -16 -26 0 -10 19 9 11 15 12
17 4 2 -6 -1 -17 -7 -23z m64 12 c0 -7 -8 -15 -17 -17 -18 -3 -25 18 -11 32
10 10 28 1 28 -15z m-118 -251 c-3 -8 -6 -5 -6 6 -1 11 2 17 5 13 3 -3 4 -12
1 -19z m-30 -14 c-3 -3 -12 -4 -19 -1 -8 3 -5 6 6 6 11 1 17 -2 13 -5z m17
-79 c-6 -16 -24 -21 -24 -7 0 11 11 22 21 22 5 0 6 -7 3 -15z"/>
<path d="M11210 9600 c0 -5 5 -10 10 -10 6 0 10 5 10 10 0 6 -4 10 -10 10 -5
0 -10 -4 -10 -10z"/>
<path d="M4326 9513 c-3 -3 -6 -17 -6 -30 0 -31 25 -25 26 6 1 23 -9 35 -20
24z"/>
<path d="M10596 9405 c-3 -8 -1 -15 4 -15 6 0 10 7 10 15 0 8 -2 15 -4 15 -2
0 -6 -7 -10 -15z"/>
<path d="M10441 9238 c-89 -132 -166 -231 -230 -298 -53 -54 -71 -80 -57 -80
2 0 48 15 102 34 393 135 381 128 341 176 -32 37 -47 88 -47 155 0 51 -20 95
-43 95 -7 -1 -36 -37 -66 -82z"/>
<path d="M3645 9250 c-3 -5 -1 -10 4 -10 6 0 11 5 11 10 0 6 -2 10 -4 10 -3 0
-8 -4 -11 -10z"/>
<path d="M7420 9211 c0 -6 5 -13 10 -16 6 -3 10 1 10 9 0 9 -4 16 -10 16 -5 0
-10 -4 -10 -9z"/>
<path d="M11032 9090 c-15 -25 -16 -77 -1 -86 9 -5 10 4 5 31 -7 33 -4 41 16
57 16 12 18 18 8 18 -8 0 -21 -9 -28 -20z"/>
<path d="M3787 9086 c-3 -8 0 -17 8 -19 7 -3 12 0 11 8 -3 22 -13 27 -19 11z"/>
<path d="M11040 9065 c0 -19 11 -19 36 0 18 14 18 14 -8 15 -18 0 -28 -5 -28
-15z"/>
<path d="M3761 9033 c-1 -35 22 -47 33 -17 11 28 5 40 -6 14 l-11 -25 -7 30
-8 30 -1 -32z"/>
<path d="M3822 9020 c0 -14 2 -19 5 -12 2 6 2 18 0 25 -3 6 -5 1 -5 -13z"/>
<path d="M1910 9015 c0 -8 7 -15 15 -15 8 0 15 -4 15 -10 0 -5 7 -10 15 -10 8
0 15 5 15 10 0 6 -7 10 -15 10 -8 0 -15 7 -15 15 0 8 -7 15 -15 15 -8 0 -15
-7 -15 -15z"/>
<path d="M2105 9010 c-3 -5 3 -10 15 -10 12 0 18 5 15 10 -3 6 -10 10 -15 10
-5 0 -12 -4 -15 -10z"/>
<path d="M2182 8980 c-13 -21 -47 -27 -57 -10 -12 20 -25 9 -25 -20 0 -28 8
-34 37 -31 15 2 37 -66 27 -87 -4 -9 -8 -26 -8 -36 -1 -11 -6 -21 -11 -23 -14
-4 -48 54 -40 67 12 19 -20 9 -47 -15 -30 -26 -38 -51 -13 -41 9 3 15 0 15 -9
0 -7 -8 -16 -17 -20 -10 -3 -26 -16 -35 -29 -20 -28 -14 -57 55 -266 49 -147
63 -197 78 -280 5 -30 15 -60 21 -67 11 -14 46 -108 72 -193 7 -25 23 -67 34
-95 11 -27 30 -81 43 -120 12 -38 32 -92 45 -120 12 -27 28 -69 35 -92 7 -25
16 -40 24 -37 15 6 26 -43 18 -76 -5 -19 6 -68 48 -206 5 -17 9 -38 9 -47 0
-9 9 -21 20 -27 12 -7 20 -7 20 -1 0 14 72 1 88 -16 10 -10 11 -17 3 -26 -5
-7 -8 -23 -4 -35 3 -14 1 -22 -7 -22 -9 0 -10 -10 -6 -35 6 -28 1 -45 -20 -81
-18 -31 -24 -51 -18 -59 5 -8 27 -39 48 -70 21 -32 47 -60 57 -62 11 -3 19 -9
19 -13 0 -8 94 -67 165 -103 28 -14 84 -35 125 -47 41 -12 103 -40 138 -62 54
-35 64 -39 79 -27 9 8 14 9 10 3 -4 -7 5 -17 23 -24 16 -7 41 -24 55 -37 22
-23 37 -21 16 3 -4 5 -11 25 -14 45 -4 30 -1 41 19 60 18 17 21 25 12 31 -7 4
4 5 25 1 24 -4 37 -2 37 6 0 6 -9 11 -20 11 -35 0 -25 38 13 49 31 9 31 9 5
10 -15 1 -30 6 -33 11 -4 6 -11 8 -16 4 -5 -3 -7 -10 -4 -15 7 -11 -5 -12 -22
-1 -20 13 12 51 37 45 19 -5 27 7 13 20 -3 4 -6 30 -6 59 1 63 -5 88 -19 88
-7 0 -8 -14 -4 -40 6 -41 -1 -90 -13 -90 -12 0 -2 150 12 178 6 15 22 28 34
30 12 2 27 9 33 17 9 11 7 17 -9 27 -25 15 -27 28 -6 28 8 0 15 7 15 15 0 8
-7 15 -15 15 -8 0 -15 4 -15 9 0 12 74 23 78 11 4 -12 32 -14 32 -2 0 13 -61
58 -92 68 -24 8 -26 84 -3 84 8 0 15 -7 15 -15 0 -18 16 -20 27 -2 5 7 29 12
58 12 l50 0 1 40 1 40 -4 -37 c-4 -37 -5 -38 -44 -38 -21 0 -39 4 -39 9 0 6
-17 12 -37 14 l-38 4 38 1 c25 1 37 7 37 17 0 10 11 15 35 15 19 0 35 4 35 9
0 6 -9 8 -20 6 -15 -3 -20 2 -20 19 0 13 -3 51 -6 85 -7 61 -7 61 20 61 l26 0
0 120 c0 113 1 120 20 120 11 0 20 -7 20 -15 0 -43 46 9 52 59 l4 36 -42 0
c-39 0 -43 -2 -47 -27 -2 -16 -2 1 1 35 3 40 -1 80 -9 105 -10 31 -11 41 -1
45 14 4 16 82 2 82 -6 0 -5 8 2 20 24 38 0 55 -81 58 -60 2 -71 0 -71 -13 0
-14 -4 -13 -26 4 -15 12 -33 21 -40 21 -8 0 -14 9 -14 19 0 15 -8 21 -37 24
l-38 4 38 1 c47 2 49 22 1 22 -25 0 -41 -7 -55 -22 -10 -13 -18 -18 -19 -11 0
6 -3 18 -6 27 -3 9 -1 16 5 16 6 0 11 -7 11 -17 0 -41 12 1 15 54 5 73 -12
163 -31 169 -41 12 -46 15 -41 20 3 4 21 10 39 15 28 7 25 8 -19 5 -38 -2 -53
1 -53 10 0 18 17 27 24 12 3 -7 4 -4 3 7 -2 14 -9 19 -24 17 -17 -2 -24 4 -32
32 -10 37 -32 66 -50 66 -18 0 -13 20 7 27 20 8 82 72 82 84 0 13 -17 11 -41
-3 -17 -11 -22 -10 -34 7 -8 11 -27 32 -41 47 -14 15 -27 38 -28 52 -1 18 -6
24 -16 21 -8 -2 -27 -7 -42 -11 -18 -4 -28 -13 -28 -25 0 -10 -4 -19 -10 -19
-5 0 -10 11 -10 24 0 27 -25 42 -34 20 -10 -27 -26 -4 -26 37 0 28 -4 39 -15
39 -8 0 -15 5 -15 12 0 9 -3 9 -11 1 -12 -12 -3 -53 12 -53 16 0 9 -40 -11
-62 l-20 -22 0 22 c0 20 -4 21 -45 15 -36 -5 -50 -2 -66 13 -21 19 -21 18 -46
-10 -23 -27 -26 -28 -41 -12 -15 15 -15 16 1 16 9 0 17 5 17 12 0 6 3 8 7 5 3
-4 12 1 19 10 11 15 15 16 38 4 24 -13 28 -12 51 14 15 15 24 33 21 41 -3 7 4
16 15 19 10 4 19 13 19 22 0 9 -6 13 -15 9 -9 -3 -21 4 -31 19 -9 14 -23 25
-31 25 -13 0 -13 -3 1 -22 27 -37 29 -47 13 -63 -21 -20 -29 -19 -81 10 -51
29 -68 31 -60 10 7 -17 -11 -21 -21 -5 -4 6 -10 8 -15 5 -4 -3 -29 -1 -54 4
-35 6 -46 5 -46 -4 0 -7 -16 -20 -35 -29 -19 -9 -35 -21 -35 -26 0 -6 -4 -10
-10 -10 -5 0 -10 7 -10 15 0 8 -5 15 -11 15 -10 0 -10 -14 2 -60 2 -8 -3 -15
-11 -15 -10 0 -14 8 -12 23 2 13 -4 32 -13 42 -9 10 -14 24 -10 30 4 7 -1 27
-11 46 -15 28 -17 38 -6 54 10 16 10 24 0 40 -7 11 -15 20 -18 20 -3 0 -11 -9
-18 -20z m-59 -215 c-4 -14 -46 -12 -50 2 -3 8 6 11 24 10 15 -1 27 -7 26 -12z
m45 -27 c-23 -41 -48 -50 -48 -18 0 19 24 39 48 40 10 0 10 -4 0 -22z m762
-18 c0 -5 -6 -10 -14 -10 -8 0 -17 -8 -19 -17 -4 -14 -5 -13 -6 4 -1 13 6 23
17 26 9 3 18 5 20 6 1 0 2 -3 2 -9z m-90 -76 c0 -27 -24 -32 -52 -10 -23 17
-23 31 4 61 l21 24 14 -25 c7 -15 13 -37 13 -50z m221 -277 c-16 -16 -26 0
-10 19 9 11 15 12 17 4 2 -6 -1 -17 -7 -23z m111 -149 c-6 -6 -16 -7 -22 -3
-9 6 -9 9 1 16 17 10 34 0 21 -13z m-1 -55 c-10 -17 -10 -16 -11 3 0 23 13 41
18 25 2 -6 -1 -18 -7 -28z m-24 -25 c-3 -8 -6 -5 -6 6 -1 11 2 17 5 13 3 -3 4
-12 1 -19z m268 -168 c3 -5 -3 -10 -15 -10 -12 0 -18 5 -15 10 3 6 10 10 15
10 5 0 12 -4 15 -10z m45 -104 c0 -8 -4 -18 -10 -21 -5 -3 -10 3 -10 14 0 12
5 21 10 21 6 0 10 -6 10 -14z m40 -216 c0 -5 -7 -10 -16 -10 -8 0 -12 5 -9 10
3 6 10 10 16 10 5 0 9 -4 9 -10z m-60 -80 c0 -5 -5 -10 -11 -10 -5 0 -7 5 -4
10 3 6 8 10 11 10 2 0 4 -4 4 -10z m-15 -100 c-3 -5 -10 -10 -16 -10 -5 0 -9
5 -9 10 0 6 7 10 16 10 8 0 12 -4 9 -10z m12 -42 c-3 -7 -5 -2 -5 12 0 14 2
19 5 13 2 -7 2 -19 0 -25z m-12 -18 c3 -5 -1 -10 -9 -10 -9 0 -16 5 -16 10 0
6 4 10 9 10 6 0 13 -4 16 -10z m-296 -623 c0 -9 -2 -8 -6 1 -2 6 -10 9 -15 6
-7 -4 -8 -2 -4 5 9 13 26 5 25 -12z m128 -252 c22 -11 20 -12 -22 -11 -24 0
-45 4 -45 9 0 4 -7 7 -16 7 -8 0 -12 4 -9 10 7 11 58 2 92 -15z m23 -32 c0 -5
-11 -13 -25 -20 -20 -9 -25 -8 -25 2 0 13 14 23 38 24 6 1 12 -2 12 -6z m-21
-76 c0 -9 -2 -8 -6 1 -2 6 -10 9 -15 6 -7 -4 -8 -2 -4 5 9 13 26 5 25 -12z"/>
<path d="M3680 8978 c0 -19 2 -20 10 -8 13 19 13 30 0 30 -5 0 -10 -10 -10
-22z"/>
<path d="M3857 8973 c-4 -3 -7 -11 -7 -17 0 -6 5 -5 12 2 6 6 9 14 7 17 -3 3
-9 2 -12 -2z"/>
<path d="M1987 8950 c-3 -13 -13 -20 -29 -20 -18 0 -20 -2 -8 -9 8 -6 18 -7
22 -5 4 3 8 -1 9 -8 0 -7 5 2 10 21 6 18 8 35 6 37 -3 3 -7 -4 -10 -16z"/>
<path d="M1958 8953 c7 -3 16 -2 19 1 4 3 -2 6 -13 5 -11 0 -14 -3 -6 -6z"/>
<path d="M3498 8905 c-10 -13 -18 -27 -18 -32 0 -4 5 -1 10 7 8 12 12 12 18 2
6 -8 9 -2 9 18 0 16 -1 30 -1 30 -1 0 -9 -11 -18 -25z"/>
<path d="M10400 8894 c-30 -8 -82 -27 -115 -43 -33 -16 -80 -31 -105 -33 -56
-6 -211 -82 -301 -148 -37 -26 -77 -54 -89 -60 -13 -7 -55 -39 -94 -72 -39
-33 -82 -64 -96 -70 -14 -5 -33 -17 -42 -25 -20 -18 -24 -58 -8 -68 13 -8 -6
-35 -23 -35 -6 0 -3 6 7 13 18 13 18 14 1 20 -10 5 -15 13 -11 23 3 9 2 12 -5
9 -6 -4 -8 -13 -5 -21 3 -8 1 -14 -4 -14 -6 0 -10 5 -10 11 0 5 -5 7 -10 4 -6
-4 -8 -10 -5 -15 3 -5 -7 -8 -22 -7 -19 1 -27 -2 -25 -12 2 -9 -4 -12 -18 -8
-11 3 -20 1 -20 -4 0 -5 6 -9 14 -9 21 0 30 -20 16 -33 -9 -9 -11 -8 -8 3 2
11 -6 15 -29 15 -21 1 -33 -4 -33 -13 0 -7 -4 -11 -9 -7 -16 9 -63 -17 -111
-62 -25 -24 -48 -43 -52 -43 -5 0 -8 -7 -8 -15 0 -8 -6 -12 -13 -9 -7 2 -26
-7 -41 -21 -15 -14 -31 -25 -35 -25 -11 0 -36 -31 -44 -53 -6 -16 -4 -16 23
-2 37 19 44 19 36 -1 -4 -11 5 -26 29 -47 30 -25 35 -36 35 -72 0 -26 6 -48
15 -55 12 -10 15 -10 15 3 0 17 37 30 46 16 3 -5 -4 -9 -15 -9 -29 0 -26 -8
10 -41 47 -42 82 -46 129 -15 22 14 46 26 54 26 8 0 17 6 19 13 3 6 6 -2 6
-20 1 -21 -7 -39 -21 -52 -19 -18 -19 -21 -5 -27 23 -8 21 -19 -4 -30 -19 -9
-17 -12 29 -49 27 -22 59 -47 71 -55 25 -17 27 -36 6 -48 -18 -10 -10 -42 10
-42 7 0 26 -13 41 -29 15 -16 48 -35 73 -42 62 -17 85 -49 36 -49 -37 0 -85
-27 -85 -48 0 -9 15 -33 32 -51 19 -21 26 -32 15 -28 -18 7 -24 -8 -6 -18 17
-11 27 -49 18 -72 -5 -13 -4 -25 1 -28 18 -11 10 -35 -11 -35 -18 0 -20 -4
-14 -27 9 -40 34 -75 47 -67 7 4 8 -1 3 -16 -6 -18 -4 -22 8 -17 9 3 18 1 21
-6 3 -7 2 1 -1 18 -4 16 -12 36 -20 43 -15 16 -18 62 -3 62 12 0 39 -26 62
-60 l17 -25 -5 25 c-4 21 -3 22 4 5 14 -30 -25 -105 -54 -105 -7 0 -10 -8 -7
-20 8 -32 48 -26 63 10 12 29 32 43 26 18 -1 -7 -1 -9 2 -5 2 4 9 3 16 -2 9
-8 17 -1 29 25 10 19 15 39 12 44 -3 5 3 13 12 19 10 6 12 11 6 11 -7 0 -13 7
-13 16 0 9 5 12 12 8 7 -5 9 -2 5 8 -8 21 3 30 20 17 9 -8 13 -8 13 -1 0 6 -7
15 -15 19 -12 7 -9 12 16 27 23 14 30 15 27 5 -3 -8 -10 -14 -16 -14 -5 0 -14
-3 -18 -7 -4 -5 -2 -8 4 -8 7 0 12 -11 12 -25 0 -18 4 -23 15 -19 10 4 15 0
15 -13 0 -10 7 -29 16 -41 8 -12 13 -23 10 -23 -33 -8 -56 -21 -56 -32 0 -7 4
-7 12 1 7 7 43 12 93 12 89 0 147 13 187 41 32 23 70 24 168 3 71 -15 92 -15
213 3 21 3 66 0 100 -7 56 -11 62 -10 74 7 8 10 11 28 8 41 -9 38 4 90 23 88
18 -3 30 -26 13 -26 -8 0 -7 -7 1 -20 10 -15 24 -20 58 -21 45 -1 45 -1 13
-10 -18 -5 -33 -11 -33 -13 0 -1 26 -2 58 -2 54 1 57 2 54 25 -4 35 -26 56
-80 76 -26 10 -56 24 -67 32 -27 18 -34 17 -46 -9 -9 -21 -9 -21 -6 5 6 37
-23 51 -148 73 -152 26 -251 9 -308 -53 -34 -37 -56 -46 -73 -32 -32 27 -2
172 39 185 12 5 27 8 32 9 18 1 110 53 139 79 32 29 46 32 64 14 19 -19 14
-51 -13 -76 -20 -19 -23 -28 -15 -43 6 -11 21 -19 35 -19 13 0 30 -7 38 -15
12 -11 59 -17 189 -25 95 -6 198 -18 228 -27 104 -30 165 -42 207 -43 l42 0
15 53 c8 28 24 99 36 157 12 58 25 120 30 138 4 17 5 30 0 27 -4 -2 -1 13 6
35 8 22 11 46 8 54 -3 8 -1 17 5 21 6 3 11 18 10 33 0 24 -1 25 -9 7 -8 -19
-9 -19 -9 2 -1 12 3 23 9 25 10 3 40 109 40 142 0 17 -13 15 -16 -2 -8 -55
-18 -91 -24 -87 -4 3 -11 -11 -14 -30 -4 -19 -11 -35 -16 -35 -6 0 -10 -5 -10
-11 0 -16 -48 -59 -66 -59 -7 0 -14 -6 -14 -13 0 -26 -87 -105 -126 -115 -37
-10 -101 -10 -107 -1 -1 2 -9 18 -17 34 -17 33 -55 45 -73 22 -17 -20 -47 -30
-41 -13 10 26 -14 26 -34 1 -11 -14 -23 -21 -26 -16 -3 5 -1 11 5 13 6 2 -4
18 -21 37 l-32 33 21 22 c12 12 21 25 21 29 0 12 -35 8 -48 -5 -30 -30 -7 10
39 68 59 75 83 84 150 60 36 -13 52 -15 68 -7 11 6 42 11 69 11 49 0 72 16 56
41 -3 5 1 9 8 9 8 0 9 3 3 8 -5 4 -11 14 -11 22 -1 8 -3 22 -5 30 -2 8 2 14 9
13 6 -2 12 4 12 12 0 9 -9 15 -25 15 -14 0 -25 -4 -25 -10 0 -5 -4 -10 -9 -10
-5 0 -12 21 -17 48 -4 26 -9 39 -12 29 -3 -14 -10 -17 -25 -13 -12 3 -25 6
-29 6 -5 0 -8 8 -8 18 0 14 -2 15 -10 2 -6 -9 -10 -10 -10 -3 0 6 -10 13 -22
15 -21 3 -20 5 12 26 19 13 47 25 63 29 31 6 37 23 7 23 -18 0 -19 3 -10 21 7
11 17 18 25 15 8 -3 14 5 17 23 3 23 1 27 -14 23 -13 -3 -21 4 -29 26 -11 33
-33 45 -90 50 -11 1 -19 16 -23 44 -5 31 -10 38 -18 30 -7 -7 -16 -12 -22 -12
-5 0 -1 8 10 19 10 10 25 16 31 14 19 -7 27 25 15 52 -9 20 -7 32 14 69 23 41
23 45 8 61 -9 9 -23 14 -31 11 -8 -3 -33 -6 -54 -6 -29 0 -38 -3 -33 -12 5
-10 4 -10 -6 -1 -11 10 -11 15 0 28 11 13 10 14 -4 9 -20 -8 -21 6 -1 32 35
46 7 87 -57 82 -26 -2 -35 2 -43 20 -11 24 -25 28 -43 10 -17 -17 -27 -1 -15
25 19 39 22 54 10 66 -16 16 -181 13 -247 -5z m380 -262 c0 -5 -9 -17 -20 -27
-11 -10 -20 -25 -20 -34 0 -9 -14 -22 -31 -30 -40 -18 -49 -7 -10 14 17 8 31
22 31 30 0 8 4 15 9 15 5 0 11 9 14 20 5 19 27 29 27 12z m-516 -96 c-3 -8
-43 -33 -90 -55 -52 -26 -84 -47 -84 -57 0 -8 11 -34 25 -57 15 -27 26 -64 29
-101 5 -59 22 -85 56 -86 9 0 33 21 55 48 45 54 51 59 125 89 30 12 64 33 75
45 32 36 99 83 113 80 6 -2 12 4 12 12 0 17 54 59 64 49 3 -3 6 -1 6 5 0 7 5
12 11 12 7 0 9 -10 5 -26 -5 -18 -3 -24 5 -19 7 5 9 1 5 -12 -9 -27 26 -69 69
-84 19 -7 35 -18 35 -24 0 -5 21 -21 48 -35 39 -21 46 -29 44 -50 -7 -50 -29
-70 -78 -70 -55 0 -95 -20 -124 -60 -30 -42 -18 -49 28 -16 48 33 66 33 80 1
16 -35 -1 -60 -60 -91 -50 -26 -88 -31 -88 -13 0 6 -9 9 -20 6 -11 -3 -18 -2
-15 3 5 8 -17 21 -50 27 -11 2 -23 10 -28 18 -5 9 -18 13 -35 10 -15 -3 -49
-6 -76 -8 -44 -4 -53 -1 -86 29 -45 41 -86 45 -99 12 -45 -119 -41 -183 10
-177 13 2 34 -3 47 -10 20 -11 22 -17 16 -61 -6 -46 -5 -50 19 -61 29 -13 38
-38 28 -76 -9 -33 -42 -44 -126 -42 -90 1 -95 0 -95 -16 0 -30 -27 -8 -54 43
-9 18 -21 32 -27 32 -5 0 -23 -14 -40 -31 -29 -29 -31 -30 -49 -14 -23 21 -17
39 31 85 73 69 94 85 119 89 14 1 37 12 52 23 40 28 37 62 -9 108 -45 44 -63
73 -63 100 0 38 -98 54 -154 25 -15 -8 -33 -15 -40 -15 -6 0 -22 -11 -36 -24
-14 -14 -43 -42 -65 -63 -51 -49 -88 -73 -115 -73 -37 0 -18 32 39 65 106 63
161 149 127 200 -20 31 -20 42 0 62 11 11 14 26 10 47 -17 90 -18 106 -7 106
6 0 14 18 17 39 7 43 19 52 74 56 48 3 85 -14 105 -47 19 -32 29 -34 69 -13
16 9 36 13 43 11 7 -3 12 0 10 7 -1 7 6 11 15 11 10 -1 15 3 11 9 -4 6 0 8 10
4 10 -3 17 -3 17 2 0 7 37 29 52 30 4 1 5 -5 2 -13z m446 -25 c0 -6 -4 -13
-10 -16 -5 -3 -10 1 -10 9 0 9 5 16 10 16 6 0 10 -4 10 -9z m-1151 -731 c20 0
46 -3 59 -6 16 -5 22 -2 22 10 0 9 8 16 20 16 22 0 26 -20 9 -37 -21 -21 -2
-40 45 -47 30 -5 46 -12 46 -22 0 -8 -8 -14 -19 -14 -28 0 -33 -45 -8 -73 10
-12 24 -34 29 -49 6 -16 14 -28 19 -28 5 0 9 -4 9 -10 0 -17 -20 -11 -56 17
-23 17 -52 28 -84 31 -39 4 -50 8 -50 22 0 14 11 20 50 25 28 4 50 9 50 13 0
12 -34 42 -49 42 -8 0 -26 -12 -40 -27 -15 -18 -25 -24 -28 -15 -3 6 -8 12
-13 12 -5 0 -27 18 -50 40 -41 39 -42 41 -37 97 6 75 6 73 24 36 14 -28 22
-33 52 -33z m470 -116 c45 -9 81 -49 81 -91 0 -44 -51 -99 -101 -108 -38 -7
-106 17 -116 40 -3 8 -9 15 -15 15 -16 0 -39 28 -28 35 5 3 10 2 10 -3 0 -6 7
-13 16 -16 8 -3 12 -2 9 4 -3 5 10 26 30 47 19 20 35 41 35 46 0 12 24 36 36
37 6 0 25 -3 43 -6z m-203 -131 c-7 -7 -26 7 -26 19 0 6 6 6 15 -2 9 -7 13
-15 11 -17z m1431 -75 c-3 -8 -6 -5 -6 6 -1 11 2 17 5 13 3 -3 4 -12 1 -19z
m-1477 -162 c0 -3 -4 -8 -10 -11 -5 -3 -10 -1 -10 4 0 6 5 11 10 11 6 0 10 -2
10 -4z m143 -15 c-3 -12 -11 -17 -19 -14 -12 4 -11 8 3 19 10 7 19 14 20 14 0
0 -1 -9 -4 -19z m55 -5 c2 -10 -1 -23 -7 -29 -15 -15 -40 9 -34 34 7 24 36 21
41 -5z m-98 -10 c0 -3 -4 -8 -10 -11 -5 -3 -10 -1 -10 4 0 6 5 11 10 11 6 0
10 -2 10 -4z m-16 -32 c-6 -3 -10 -18 -8 -34 2 -16 0 -31 -4 -34 -4 -2 -7 12
-6 32 3 45 1 42 17 41 8 0 8 -2 1 -5z m-64 -100 c0 -8 -5 -12 -10 -9 -6 4 -8
11 -5 16 9 14 15 11 15 -7z m26 -131 c-10 -10 -19 5 -10 18 6 11 8 11 12 0 2
-7 1 -15 -2 -18z"/>
<path d="M3215 8880 c3 -5 8 -10 11 -10 2 0 4 5 4 10 0 6 -5 10 -11 10 -5 0
-7 -4 -4 -10z"/>
<path d="M1990 8802 c0 -7 -4 -10 -10 -7 -11 7 -14 -47 -4 -58 4 -3 17 1 31
10 13 9 20 19 15 22 -5 3 -14 15 -20 26 -6 11 -12 14 -12 7z"/>
<path d="M3180 8736 c0 -13 -7 -29 -15 -36 -20 -17 -21 -100 -1 -100 10 0 16
16 19 53 3 28 8 64 12 80 5 17 3 27 -4 27 -6 0 -11 -11 -11 -24z"/>
<path d="M3580 8705 c0 -8 2 -15 4 -15 2 0 6 7 10 15 3 8 1 15 -4 15 -6 0 -10
-7 -10 -15z"/>
<path d="M3855 8690 c-3 -5 1 -10 10 -10 9 0 13 5 10 10 -3 6 -8 10 -10 10 -2
0 -7 -4 -10 -10z"/>
<path d="M3220 8640 c0 -29 4 -40 15 -40 11 0 15 11 15 40 0 29 -4 40 -15 40
-11 0 -15 -11 -15 -40z"/>
<path d="M3641 8664 c0 -11 3 -14 6 -6 3 7 2 16 -1 19 -3 4 -6 -2 -5 -13z"/>
<path d="M3610 8651 c0 -6 4 -13 10 -16 6 -3 7 1 4 9 -7 18 -14 21 -14 7z"/>
<path d="M10936 8585 c-20 -30 -21 -56 -1 -29 13 17 14 17 15 2 0 -9 -4 -20
-10 -23 -5 -3 -10 -26 -10 -51 0 -32 4 -44 15 -44 8 0 15 5 15 10 0 6 -4 10
-10 10 -5 0 -10 9 -10 20 0 11 4 20 10 20 5 0 8 20 6 45 -2 34 1 48 13 55 15
9 15 9 0 10 -9 0 -24 -11 -33 -25z"/>
<path d="M3100 8590 c0 -5 5 -10 10 -10 6 0 10 5 10 10 0 6 -4 10 -10 10 -5 0
-10 -4 -10 -10z"/>
<path d="M3850 8560 c0 -5 7 -10 15 -10 8 0 15 5 15 10 0 6 -7 10 -15 10 -8 0
-15 -4 -15 -10z"/>
<path d="M3170 8480 c0 -22 5 -40 10 -40 6 0 10 18 10 40 0 22 -4 40 -10 40
-5 0 -10 -18 -10 -40z"/>
<path d="M3715 8511 c-3 -5 1 -16 9 -24 8 -8 12 -17 9 -21 -4 -3 0 -6 8 -6 8
0 15 9 15 19 0 11 -5 19 -11 18 -5 -1 -9 4 -7 11 2 14 -14 16 -23 3z"/>
<path d="M8480 8500 c0 -5 4 -10 9 -10 6 0 13 5 16 10 3 6 -1 10 -9 10 -9 0
-16 -4 -16 -10z"/>
<path d="M3700 8471 c0 -5 5 -13 10 -16 6 -3 10 -2 10 4 0 5 -4 13 -10 16 -5
3 -10 2 -10 -4z"/>
<path d="M3280 8455 c0 -9 9 -15 21 -15 18 0 19 2 9 15 -7 8 -16 15 -21 15 -5
0 -9 -7 -9 -15z"/>
<path d="M3360 8415 c0 -40 4 -55 14 -55 9 0 15 15 18 46 3 36 0 48 -14 55
-16 9 -18 4 -18 -46z"/>
<path d="M3745 8429 c-4 -6 -5 -12 -2 -15 2 -3 7 2 10 11 7 17 1 20 -8 4z"/>
<path d="M10970 8425 c-6 -8 -10 -19 -8 -26 2 -6 9 0 16 15 13 29 10 33 -8 11z"/>
<path d="M10991 8386 c-8 -9 -11 -19 -7 -23 9 -9 29 13 24 27 -2 8 -8 7 -17
-4z"/>
<path d="M3775 8350 c3 -5 8 -10 11 -10 2 0 4 5 4 10 0 6 -5 10 -11 10 -5 0
-7 -4 -4 -10z"/>
<path d="M3811 8344 c0 -11 3 -14 6 -6 3 7 2 16 -1 19 -3 4 -6 -2 -5 -13z"/>
<path d="M3574 8318 c4 -18 11 -34 16 -36 25 -9 7 -29 -24 -29 -24 0 -33 4
-29 14 3 7 0 13 -6 13 -6 0 -11 -9 -11 -20 0 -11 4 -20 9 -20 5 0 12 -11 15
-25 7 -29 36 -33 60 -9 15 14 20 11 17 -8 0 -5 3 -8 8 -8 5 0 9 15 8 34 -1 22
-6 32 -14 29 -12 -5 -15 4 -16 54 -1 12 -5 20 -9 17 -4 -3 -8 2 -8 10 0 9 -5
16 -11 16 -8 0 -9 -11 -5 -32z"/>
<path d="M3831 8314 c0 -11 3 -14 6 -6 3 7 2 16 -1 19 -3 4 -6 -2 -5 -13z"/>
<path d="M3440 8295 c0 -9 9 -15 21 -15 18 0 19 2 9 15 -7 8 -16 15 -21 15 -5
0 -9 -7 -9 -15z"/>
<path d="M11060 8270 c0 -5 5 -10 10 -10 6 0 10 5 10 10 0 6 -4 10 -10 10 -5
0 -10 -4 -10 -10z"/>
<path d="M11127 8204 c-4 -4 -7 -26 -6 -48 l1 -41 9 39 c10 42 8 62 -4 50z"/>
<path d="M4760 8190 c-8 -5 -10 -10 -5 -10 6 0 17 5 25 10 8 5 11 10 5 10 -5
0 -17 -5 -25 -10z"/>
<path d="M3681 8174 c0 -11 3 -14 6 -6 3 7 2 16 -1 19 -3 4 -6 -2 -5 -13z"/>
<path d="M4781 8164 c0 -11 3 -14 6 -6 3 7 2 16 -1 19 -3 4 -6 -2 -5 -13z"/>
<path d="M3710 8121 c0 -12 5 -21 10 -21 6 0 10 6 10 14 0 8 -4 18 -10 21 -5
3 -10 -3 -10 -14z"/>
<path d="M10998 8113 c7 -3 16 -2 19 1 4 3 -2 6 -13 5 -11 0 -14 -3 -6 -6z"/>
<path d="M3681 8072 c1 -27 3 -30 6 -12 l5 24 14 -24 c12 -23 13 -23 14 -5 0
11 -9 28 -20 38 -20 16 -20 16 -19 -21z"/>
<path d="M3733 8060 c0 -16 4 -27 9 -24 4 3 8 14 8 24 0 10 -4 21 -8 24 -5 3
-9 -8 -9 -24z"/>
<path d="M3750 8018 c-11 -23 -11 -23 5 -3 16 19 16 18 10 -20 l-6 -40 14 30
c22 48 -1 79 -23 33z"/>
<path d="M11131 8024 c0 -11 3 -14 6 -6 3 7 2 16 -1 19 -3 4 -6 -2 -5 -13z"/>
<path d="M3674 7966 c-8 -32 11 -65 43 -77 30 -11 41 -5 24 15 -6 8 -14 24
-16 36 -5 25 -23 50 -36 50 -5 0 -11 -11 -15 -24z"/>
<path d="M4411 7864 c0 -11 3 -14 6 -6 3 7 2 16 -1 19 -3 4 -6 -2 -5 -13z"/>
<path d="M3650 7716 c0 -7 7 -19 15 -26 13 -11 15 -8 15 14 0 16 -5 26 -15 26
-8 0 -15 -6 -15 -14z"/>
<path d="M4555 7659 c-4 -10 -10 -19 -14 -19 -4 0 -13 -11 -19 -25 -11 -24
-42 -35 -42 -15 0 6 -13 10 -30 10 -33 0 -35 -3 -20 -31 8 -14 7 -19 -1 -19
-8 0 -8 -4 -1 -13 6 -7 9 -23 5 -35 -7 -30 6 -28 35 5 30 35 57 22 58 -28 1
-19 6 -47 13 -62 10 -27 15 -29 56 -25 38 3 45 0 45 -14 0 -25 50 -24 79 2
l23 19 -33 58 c-18 32 -50 81 -71 108 -21 28 -38 53 -38 58 0 4 -9 16 -19 26
-20 20 -20 20 -26 0z"/>
<path d="M3520 7544 c0 -8 5 -12 10 -9 6 3 10 10 10 16 0 5 -4 9 -10 9 -5 0
-10 -7 -10 -16z"/>
<path d="M5183 7513 c-18 -7 -16 -20 2 -20 8 0 12 4 9 8 -2 4 2 10 8 12 7 3 9
5 3 5 -5 0 -16 -2 -22 -5z"/>
<path d="M3536 7483 c-4 -9 -3 -20 2 -25 11 -11 36 17 27 32 -9 15 -22 12 -29
-7z"/>
<path d="M5960 7485 c0 -8 4 -15 8 -15 5 0 9 7 9 15 0 8 -4 15 -9 15 -4 0 -8
-7 -8 -15z"/>
<path d="M3522 7420 c0 -14 2 -19 5 -12 2 6 2 18 0 25 -3 6 -5 1 -5 -13z"/>
<path d="M9093 7403 c8 -15 37 -48 64 -73 27 -25 61 -61 76 -80 27 -34 28 -34
42 -16 20 26 19 29 -12 67 l-27 32 24 -13 c23 -12 24 -12 11 4 -8 9 -21 14
-29 11 -8 -3 -27 7 -43 25 -16 16 -33 30 -39 30 -5 0 -15 8 -22 18 -7 9 -23
18 -36 20 -22 3 -23 2 -9 -25z"/>
<path d="M13386 7368 c-4 -18 -8 -20 -18 -10 -17 17 -32 15 -80 -8 -23 -11
-46 -20 -51 -20 -8 0 -28 -14 -84 -60 -7 -6 -17 -10 -24 -10 -6 0 -23 -8 -37
-18 -15 -10 -43 -25 -62 -32 -19 -7 -46 -21 -60 -30 -14 -10 -36 -21 -50 -25
-38 -11 -160 -79 -160 -89 0 -5 7 -3 16 5 19 16 34 -2 34 -43 0 -28 -22 -47
-56 -47 -10 0 -33 -3 -51 -7 -29 -5 -31 -4 -26 15 6 25 -9 27 -31 5 -18 -17
-21 -28 -6 -19 5 3 7 0 4 -8 -5 -15 -46 -27 -88 -27 -23 0 -159 -68 -164 -82
-2 -5 -25 -19 -51 -33 -46 -23 -83 -55 -63 -55 11 0 89 26 117 40 30 14 181
40 236 40 26 0 81 10 121 23 44 14 85 20 103 17 35 -7 117 10 161 33 17 9 59
17 95 18 35 1 99 10 142 21 42 11 88 18 100 16 43 -5 64 33 92 165 19 84 14
126 -9 95 -18 -25 -26 -22 -26 7 0 18 7 28 25 35 27 10 32 39 15 84 -13 34
-55 36 -64 4z m-106 -123 c0 -16 -35 -21 -45 -6 -4 8 9 15 38 20 4 0 7 -6 7
-14z m92 -17 c-9 -9 -12 -7 -12 12 0 19 3 21 12 12 9 -9 9 -15 0 -24z m-262
-79 c0 -5 -10 -9 -22 -8 -13 0 -17 3 -10 6 6 2 10 9 7 14 -4 5 1 6 9 3 9 -3
16 -10 16 -15z m0 -23 c0 -3 -4 -8 -10 -11 -5 -3 -10 -1 -10 4 0 6 5 11 10 11
6 0 10 -2 10 -4z m-130 -64 c0 -8 -71 -44 -77 -39 -1 2 4 13 13 25 14 21 64
32 64 14z"/>
<path d="M9523 7363 c-27 -5 -29 -16 -7 -34 12 -10 19 -10 32 -1 10 7 25 15
35 18 9 4 17 10 17 15 0 9 -36 10 -77 2z"/>
<path d="M5573 7245 c0 -8 4 -12 9 -9 5 3 6 10 3 15 -9 13 -12 11 -12 -6z"/>
<path d="M9416 7218 c1 -13 3 -25 3 -28 1 -3 6 2 11 10 8 12 10 12 10 1 0 -8
3 -12 6 -9 7 8 -14 48 -25 48 -4 0 -7 -10 -5 -22z"/>
<path d="M9383 7217 c-17 -21 -33 -93 -33 -143 0 -64 21 -95 63 -94 18 1 51
-2 75 -6 49 -8 53 1 23 60 -21 40 -15 81 17 119 14 15 13 17 -6 17 -12 0 -21
-3 -20 -7 1 -5 -4 -21 -10 -36 -7 -16 -12 -34 -13 -40 0 -7 -4 -3 -9 8 -12 28
-12 37 0 30 12 -7 13 24 2 42 -4 7 -17 14 -27 16 -28 4 -46 17 -40 27 9 14
-12 21 -22 7z m77 -67 c0 -5 -2 -10 -4 -10 -3 0 -8 5 -11 10 -3 6 -1 10 4 10
6 0 11 -4 11 -10z"/>
<path d="M10782 7140 c0 -14 2 -19 5 -12 2 6 2 18 0 25 -3 6 -5 1 -5 -13z"/>
<path d="M10793 7105 c-9 -24 1 -27 15 -5 8 13 8 20 2 20 -6 0 -13 -7 -17 -15z"/>
<path d="M9890 7099 c0 -5 5 -7 11 -3 8 4 9 0 4 -15 -5 -16 -1 -23 17 -30 37
-14 42 -1 11 30 -30 30 -43 36 -43 18z"/>
<path d="M10820 7090 c-9 -6 -10 -10 -3 -10 6 0 15 5 18 10 8 12 4 12 -15 0z"/>
<path d="M11093 7021 c3 -24 12 -51 21 -59 13 -14 15 -12 21 14 3 16 11 37 16
47 6 11 8 22 5 25 -3 3 -6 2 -6 -2 0 -4 -9 -2 -20 4 -15 8 -20 8 -20 -2 0 -9
-3 -9 -11 2 -8 11 -9 4 -6 -29z"/>
<path d="M12709 7041 c-30 -14 -34 -19 -22 -29 7 -7 18 -10 23 -7 6 3 7 -2 4
-12 -5 -15 -4 -15 7 1 10 16 10 21 -1 24 -9 3 -5 10 11 23 29 22 25 23 -22 0z"/>
<path d="M12745 7000 c3 -5 11 -10 16 -10 6 0 7 5 4 10 -3 6 -11 10 -16 10 -6
0 -7 -4 -4 -10z"/>
<path d="M8640 6939 c0 -13 7 -19 24 -19 18 0 23 4 19 18 -6 25 -43 26 -43 1z
m25 1 c3 -5 1 -10 -4 -10 -6 0 -11 5 -11 10 0 6 2 10 4 10 3 0 8 -4 11 -10z"/>
<path d="M13355 6950 c-3 -5 -1 -10 4 -10 6 0 11 5 11 10 0 6 -2 10 -4 10 -3
0 -8 -4 -11 -10z"/>
<path d="M8780 6920 c-8 -5 -11 -12 -8 -16 4 -3 14 1 23 10 18 17 9 21 -15 6z"/>
<path d="M12195 6900 c-33 -16 -69 -30 -81 -30 -12 0 -59 -17 -105 -39 -189
-87 -389 -156 -558 -194 l-105 -23 -16 -60 c-21 -73 -54 -147 -90 -199 -25
-36 -57 -101 -73 -147 -5 -13 -2 -15 11 -11 9 4 19 9 22 12 15 18 128 98 220
156 58 36 116 77 131 91 14 13 29 24 33 24 4 0 42 24 84 54 187 131 486 326
500 326 14 0 112 57 112 66 0 11 -31 1 -85 -26z"/>
<path d="M8692 6907 c-12 -14 -11 -20 6 -42 14 -17 22 -21 25 -13 3 8 6 6 6
-4 1 -21 31 -24 50 -5 6 6 17 12 24 12 7 0 13 10 15 23 5 34 -27 28 -41 -8
-13 -34 -27 -34 -44 1 -8 15 -13 18 -14 9 -1 -8 -4 -2 -8 14 -5 26 -7 27 -19
13z"/>
<path d="M9624 6881 c6 -37 4 -41 -28 -61 -40 -24 -61 -76 -52 -124 3 -17 10
-53 16 -79 5 -26 10 -130 11 -230 2 -188 5 -220 20 -195 6 9 9 7 9 -8 0 -11 9
-29 20 -39 11 -10 17 -22 14 -26 -6 -10 19 -39 32 -39 5 0 3 5 -4 12 -20 20
-13 30 10 14 12 -9 30 -16 38 -16 9 0 29 -16 44 -35 16 -19 37 -35 47 -35 29
0 73 -48 110 -118 27 -53 30 -66 21 -87 -15 -32 -60 -40 -167 -28 -66 7 -90 6
-111 -5 -18 -9 -24 -10 -19 -2 4 7 -2 25 -14 40 -11 16 -17 31 -13 33 47 29
82 46 77 37 -3 -5 0 -7 9 -4 8 3 17 23 21 45 5 30 2 45 -14 67 -12 18 -18 37
-14 50 3 14 1 22 -7 22 -7 0 -10 -6 -7 -13 8 -21 -25 -14 -61 12 -54 38 -65
28 -80 -74 -7 -50 -20 -117 -28 -150 -8 -33 -22 -94 -30 -135 -8 -41 -22 -86
-32 -100 -10 -14 -28 -50 -41 -80 -58 -139 -167 -358 -193 -388 -30 -35 -35
-52 -15 -52 51 2 213 42 261 64 33 15 82 30 109 33 48 6 142 49 217 99 19 13
40 24 47 24 12 0 126 76 275 185 43 31 108 75 145 98 38 24 84 58 104 77 20
19 64 60 99 90 35 30 77 69 94 85 17 17 52 48 79 69 26 21 66 65 89 99 23 34
51 68 62 76 12 8 42 35 67 60 52 52 87 139 94 232 2 30 6 66 9 82 4 15 2 27
-4 27 -5 0 -10 9 -10 20 0 14 7 20 21 20 16 0 20 -5 16 -20 -3 -11 -1 -18 4
-14 13 8 11 42 -3 47 -7 3 -4 6 8 6 15 1 26 13 37 43 20 50 14 64 -7 17 -15
-32 -15 -28 -1 33 5 20 3 27 -12 31 -12 3 -9 5 10 6 19 1 27 -4 28 -16 1 -25
25 32 33 80 5 29 4 37 -8 37 -8 0 -18 -4 -21 -10 -3 -5 -36 -10 -72 -10 -59 0
-68 -3 -91 -27 -14 -16 -26 -39 -26 -53 -1 -21 -6 -25 -31 -25 -28 0 -30 3
-37 48 -3 27 -12 55 -18 63 -14 16 -115 20 -125 4 -8 -13 -79 -12 -130 1 -22
6 -50 13 -61 16 -12 3 -38 -3 -57 -12 -31 -15 -36 -22 -39 -58 -2 -22 -9 -42
-15 -45 -10 -3 -13 14 -13 62 0 63 -1 67 -27 78 -16 6 -43 17 -61 25 -18 8
-42 11 -53 8 -11 -4 -35 -8 -54 -10 -25 -2 -32 0 -28 11 3 8 0 14 -6 14 -6 0
-11 -9 -11 -20 0 -14 -7 -20 -23 -20 -26 0 -57 -28 -57 -51 0 -12 -2 -12 -9 0
-6 9 -18 11 -35 7 -15 -4 -24 -11 -21 -16 7 -12 -41 -44 -55 -35 -5 3 -10 12
-10 19 0 7 -9 22 -20 34 -11 12 -20 25 -19 29 4 23 -6 33 -60 57 -71 32 -81
32 -78 4 4 -39 -26 -27 -36 15 -6 23 -15 37 -24 37 -12 0 -14 -8 -9 -39z m543
-83 c-3 -8 -6 -5 -6 6 -1 11 2 17 5 13 3 -3 4 -12 1 -19z m-22 -36 c-8 -8 -25
17 -25 38 0 9 6 6 16 -8 9 -13 13 -26 9 -30z m910 -2 c3 -5 1 -10 -4 -10 -6 0
-11 5 -11 10 0 6 2 10 4 10 3 0 8 -4 11 -10z m-8 -42 c-3 -8 -6 -5 -6 6 -1 11
2 17 5 13 3 -3 4 -12 1 -19z m-169 -53 c-3 -3 -9 2 -12 12 -6 14 -5 15 5 6 7
-7 10 -15 7 -18z m97 -61 c-9 -16 -14 -21 -11 -11 3 10 6 28 6 40 0 15 3 18
11 10 8 -8 6 -19 -6 -39z m-1026 17 c6 -10 7 -22 3 -26 -4 -4 4 -4 18 0 21 7
22 6 9 -7 -8 -8 -21 -15 -29 -16 -8 0 -26 -4 -39 -8 -20 -6 -23 -4 -18 9 3 9
2 19 -2 22 -5 3 -7 14 -4 25 7 26 49 27 62 1z m964 -166 c-3 -8 0 -15 6 -15 6
0 11 -6 11 -12 -1 -7 -9 -2 -20 11 -11 12 -17 27 -14 32 9 14 24 0 17 -16z
m-14 -39 c-3 -3 -11 5 -18 17 -13 21 -12 21 5 5 10 -10 16 -20 13 -22z m-1269
-145 c0 -5 -7 -22 -15 -37 -13 -26 -15 -26 -15 -7 0 12 3 28 6 37 7 17 24 22
24 7z m-65 -411 c-3 -5 -12 -10 -18 -10 -7 0 -6 4 3 10 19 12 23 12 15 0z"/>
<path d="M8751 6884 c0 -11 3 -14 6 -6 3 7 2 16 -1 19 -3 4 -6 -2 -5 -13z"/>
<path d="M13301 6874 c0 -11 3 -14 6 -6 3 7 2 16 -1 19 -3 4 -6 -2 -5 -13z"/>
<path d="M12865 6860 c10 -33 14 -37 24 -21 5 7 14 10 20 7 6 -4 11 -2 11 3 0
6 -8 11 -18 11 -10 0 -24 6 -31 13 -11 10 -12 7 -6 -13z"/>
<path d="M13295 6841 l20 -8 -20 -6 c-16 -5 -15 -5 4 -4 36 3 39 27 4 26 -24
0 -25 -2 -8 -8z"/>
<path d="M12865 6810 c-3 -5 -1 -10 4 -10 6 0 11 5 11 10 0 6 -2 10 -4 10 -3
0 -8 -4 -11 -10z"/>
<path d="M1068 6803 c6 -2 18 -2 25 0 6 3 1 5 -13 5 -14 0 -19 -2 -12 -5z"/>
<path d="M1120 6790 c0 -5 -14 -10 -31 -10 -17 0 -28 -4 -24 -10 3 -5 1 -10
-6 -10 -7 0 4 -17 24 -38 21 -21 34 -42 30 -46 -4 -4 0 -4 9 -1 14 6 14 10 3
32 -17 33 -12 42 20 35 15 -2 25 0 25 7 0 6 -6 11 -12 12 -7 0 1 7 17 15 l30
15 -40 -6 c-29 -4 -36 -3 -25 4 13 9 13 11 -2 11 -10 0 -18 -4 -18 -10z"/>
<path d="M5115 6763 c-4 -21 -18 -80 -32 -131 -23 -83 -24 -98 -13 -131 7 -21
9 -47 6 -59 -4 -11 -1 -30 6 -41 10 -17 9 -23 -7 -41 -14 -16 -16 -23 -7 -32
9 -9 19 -8 41 5 16 9 41 17 54 17 29 0 44 15 24 23 -12 5 -13 25 -5 87 1 8 -1
36 -6 61 -6 35 -4 54 8 76 14 29 14 32 -4 48 -16 15 -20 31 -20 87 0 61 -2 68
-20 68 -14 0 -21 -9 -25 -37z"/>
<path d="M3361 6724 c0 -11 3 -14 6 -6 3 7 2 16 -1 19 -3 4 -6 -2 -5 -13z"/>
<path d="M12203 6733 c3 -4 -6 -9 -20 -10 -14 0 -45 -15 -70 -32 -24 -17 -46
-31 -48 -31 -13 0 -175 -103 -201 -128 -17 -17 -48 -39 -70 -50 -21 -11 -65
-40 -96 -64 -32 -23 -71 -52 -87 -63 -158 -104 -263 -180 -299 -215 -24 -23
-89 -67 -145 -97 -137 -74 -289 -176 -327 -221 -63 -73 -174 -182 -186 -182
-7 0 -14 -4 -16 -8 -5 -12 -213 -152 -227 -152 -6 0 -11 -4 -11 -8 0 -4 -20
-18 -45 -30 -25 -12 -45 -26 -45 -30 0 -5 -22 -23 -50 -41 -27 -17 -65 -46
-84 -64 -30 -28 -88 -72 -186 -142 -176 -125 -221 -155 -233 -155 -9 0 -48
-17 -89 -38 -103 -54 -169 -75 -403 -133 -91 -23 -283 -118 -325 -161 -63 -65
-150 -178 -150 -196 0 -8 -11 -24 -24 -36 -13 -11 -52 -57 -86 -101 -34 -44
-75 -92 -91 -106 -16 -15 -29 -31 -29 -36 0 -5 -16 -24 -35 -43 -19 -18 -33
-35 -31 -38 3 -2 -11 -18 -30 -34 -19 -17 -32 -33 -29 -36 3 -3 32 -7 65 -8
32 -2 68 -8 79 -13 11 -6 50 -11 88 -12 37 0 100 -4 138 -8 39 -4 72 -4 73 1
2 4 8 8 13 8 6 0 8 -4 5 -9 -4 -5 7 -12 24 -15 16 -3 44 -9 60 -12 18 -3 30
-1 30 5 0 6 -6 11 -12 11 -10 0 -9 3 1 9 11 7 11 9 0 14 -10 4 -9 6 4 6 19 1
24 36 6 47 -6 3 -39 6 -73 5 l-61 -1 33 20 c18 11 37 20 42 20 6 0 10 5 10 10
0 6 17 10 38 9 46 -1 134 -47 147 -77 5 -12 15 -22 22 -22 22 0 14 -17 -9 -24
-34 -9 -38 -7 -32 9 4 8 2 15 -4 15 -5 0 -12 -7 -16 -15 -3 -9 -18 -15 -38
-14 -29 1 -30 2 -9 8 22 6 22 8 7 20 -9 8 -19 11 -23 7 -3 -3 0 -6 8 -7 8 0 4
-4 -8 -9 -26 -11 -31 -45 -8 -54 26 -9 477 -6 535 4 30 6 109 9 175 8 87 -2
138 2 185 14 36 9 121 31 190 48 145 36 271 73 325 96 l38 16 -29 19 c-26 17
-27 19 -7 19 12 0 23 -5 25 -11 3 -9 10 -9 27 0 12 7 27 10 34 7 7 -2 5 -5 -5
-5 -9 -1 -19 -5 -23 -11 -3 -5 7 -5 25 1 16 6 30 15 30 21 0 6 7 8 15 4 9 -3
25 4 36 15 15 15 28 19 46 14 16 -4 22 -2 18 4 -4 7 0 8 10 4 10 -3 20 -1 24
4 10 18 111 44 111 30 1 -7 5 -6 13 4 7 8 26 16 42 16 69 2 106 13 268 78 153
61 347 164 357 190 4 11 10 19 14 18 13 -6 25 -2 38 11 8 7 34 24 59 36 24 13
68 43 98 67 30 24 68 51 85 60 41 21 246 177 321 244 107 95 209 203 235 248
14 24 31 50 38 57 7 7 36 61 66 119 50 99 51 105 31 105 -13 0 -28 7 -35 15
-9 10 -9 15 -1 15 6 0 11 7 11 16 0 22 39 56 54 47 16 -10 46 -11 52 -1 3 4 0
8 -6 8 -6 0 -9 3 -7 8 3 4 1 17 -4 29 -7 18 -13 21 -48 16 -42 -6 -56 8 -25
25 13 7 13 10 1 21 -10 8 -17 9 -22 1 -15 -24 -35 -10 -35 25 0 30 -3 35 -24
35 -33 0 -42 17 -21 40 13 15 15 23 7 33 -9 10 -5 22 13 49 l24 36 -20 18
c-12 11 -32 17 -45 16 -21 -3 -24 1 -24 27 0 17 4 31 8 31 5 0 16 6 26 13 16
12 14 17 -28 60 -25 26 -46 50 -46 54 0 8 -36 26 -77 38 -29 8 -29 19 1 38 21
14 24 23 21 65 -3 66 -12 78 -36 56 -25 -23 -24 -10 3 33 21 35 21 37 5 110
-9 40 -25 85 -36 100 -22 27 -20 43 5 43 8 0 14 5 14 10 0 6 11 15 25 20 18 7
24 15 21 32 -1 13 -11 25 -21 26 -9 2 -15 0 -12 -5z m-2803 -2333 c0 -5 -9
-10 -20 -10 -11 0 -20 5 -20 10 0 6 9 10 20 10 11 0 20 -4 20 -10z m-70 -10
c0 -5 -9 -10 -21 -10 -11 0 -17 5 -14 10 3 6 13 10 21 10 8 0 14 -4 14 -10z
m-175 -31 c7 -7 4 -8 -7 -4 -13 5 -18 2 -18 -11 0 -14 -3 -15 -8 -6 -5 8 -16
10 -27 6 -13 -5 -16 -4 -11 4 4 7 3 12 -1 12 -5 0 -17 -16 -27 -35 -11 -19
-25 -36 -33 -36 -34 -4 -38 -3 -38 11 0 9 12 17 30 20 20 3 31 12 33 25 3 16
1 17 -7 5 -8 -11 -15 -12 -28 -4 -9 6 -18 15 -20 20 -4 12 149 5 162 -7z m130
1 c3 -5 2 -17 -3 -26 -8 -15 -10 -15 -15 0 -4 10 -3 15 3 11 6 -3 10 -2 10 4
0 5 -8 12 -17 14 -16 4 -16 5 -1 6 9 0 20 -3 23 -9z m235 -17 c0 -10 -5 -25
-10 -33 -7 -12 -12 -12 -22 -2 -9 9 -9 12 5 12 10 0 17 8 17 20 0 11 2 20 5
20 3 0 5 -8 5 -17z m9 -97 c-9 -8 -10 -5 -5 14 3 14 7 41 8 60 1 27 3 23 5
-14 3 -30 0 -53 -8 -60z m-412 42 c-3 -7 -5 -2 -5 12 0 14 2 19 5 13 2 -7 2
-19 0 -25z m-17 17 c0 -2 -13 -10 -30 -19 -32 -15 -33 -15 -25 6 4 11 55 23
55 13z m150 -4 c0 -5 -7 -12 -16 -15 -14 -5 -15 -4 -4 9 14 17 20 19 20 6z
m95 -11 c3 -5 1 -10 -4 -10 -6 0 -11 5 -11 10 0 6 2 10 4 10 3 0 8 -4 11 -10z
m-145 -20 c0 -5 7 -10 16 -10 9 0 14 -5 12 -12 -7 -21 -23 -18 -35 7 -6 14 -7
25 -2 25 5 0 9 -4 9 -10z m237 4 c-3 -3 -12 -4 -19 -1 -8 3 -5 6 6 6 11 1 17
-2 13 -5z m-502 -24 c-3 -5 -13 -10 -21 -10 -8 0 -12 5 -9 10 3 6 13 10 21 10
8 0 12 -4 9 -10z m249 -5 c3 -8 1 -15 -4 -15 -6 0 -10 7 -10 15 0 8 2 15 4 15
2 0 6 -7 10 -15z m276 6 c0 -6 -4 -13 -10 -16 -5 -3 -10 1 -10 9 0 9 5 16 10
16 6 0 10 -4 10 -9z m33 -25 c-3 -14 -15 -34 -27 -45 l-23 -21 -11 24 c-7 16
-8 28 -2 31 6 4 10 -4 10 -17 0 -20 3 -18 25 15 30 44 34 45 28 13z m47 -85
c0 -5 -7 -11 -15 -15 -15 -5 -20 5 -8 17 9 10 23 9 23 -2z m-85 -21 c-3 -5
-16 -10 -28 -9 -21 0 -21 1 -2 9 28 12 37 12 30 0z m-330 -130 c4 -6 -6 -10
-22 -9 -25 0 -26 1 -8 9 11 5 21 9 22 9 1 1 5 -3 8 -9z m48 3 c-7 -2 -19 -2
-25 0 -7 3 -2 5 12 5 14 0 19 -2 13 -5z"/>
<path d="M8580 6700 c0 -11 5 -20 10 -20 6 0 10 9 10 20 0 11 -4 20 -10 20 -5
0 -10 -9 -10 -20z"/>
<path d="M4585 6701 c-3 -5 -1 -12 5 -16 5 -3 10 1 10 9 0 18 -6 21 -15 7z"/>
<path d="M3440 6690 c0 -5 5 -10 11 -10 5 0 7 5 4 10 -3 6 -8 10 -11 10 -2 0
-4 -4 -4 -10z"/>
<path d="M8640 6691 c0 -6 -7 -11 -15 -11 -9 0 -15 -9 -15 -24 0 -15 -11 -33
-26 -45 -30 -23 -15 -28 32 -11 21 9 31 7 47 -7 20 -17 20 -17 14 0 -4 11 -10
31 -14 45 -6 25 -5 26 12 12 17 -14 17 -14 7 6 -14 27 -42 50 -42 35z"/>
<path d="M1008 6630 c-5 -33 11 -42 19 -10 3 11 14 20 24 20 11 0 19 5 19 10
0 6 -13 10 -29 10 -24 0 -29 -5 -33 -30z"/>
<path d="M4645 6586 l0 -63 22 16 c12 9 23 22 23 30 0 11 -3 11 -15 1 -12 -10
-15 -9 -16 6 -4 83 -15 91 -14 10z"/>
<path d="M4671 6634 c0 -11 3 -14 6 -6 3 7 2 16 -1 19 -3 4 -6 -2 -5 -13z"/>
<path d="M770 6627 c0 -7 9 -37 21 -67 11 -30 26 -71 33 -90 8 -19 29 -57 47
-83 19 -26 45 -67 59 -91 39 -66 112 -142 133 -138 11 2 16 9 13 18 -10 25 10
15 22 -12 7 -14 17 -22 22 -19 6 3 10 -3 10 -14 0 -12 -7 -21 -15 -21 -8 0
-15 5 -15 10 0 6 -4 10 -9 10 -22 0 -4 -62 42 -150 61 -113 284 -448 408 -610
48 -63 134 -164 192 -225 58 -60 130 -139 160 -175 30 -36 147 -153 260 -261
157 -152 222 -207 284 -243 43 -25 99 -64 124 -87 77 -71 161 -126 254 -164
50 -20 97 -43 105 -50 8 -7 71 -32 140 -54 89 -29 138 -51 170 -77 25 -20 58
-43 74 -51 38 -20 191 -53 286 -63 41 -4 86 -12 100 -17 14 -6 54 -14 90 -17
36 -4 72 -9 81 -12 22 -6 41 39 29 70 -5 13 -6 27 -3 30 3 3 0 12 -7 21 -10
12 -10 15 0 15 7 0 -21 34 -63 76 -43 41 -75 80 -72 85 4 5 22 9 41 9 26 0 34
4 34 18 0 10 7 27 15 38 14 18 14 18 15 -8 0 -16 5 -28 10 -28 6 0 10 8 10 18
0 10 11 25 25 32 14 7 25 18 25 23 0 5 -7 4 -15 -3 -8 -7 -15 -8 -15 -2 0 19
59 36 85 24 21 -10 24 -8 30 18 12 54 70 50 103 -9 18 -31 31 -41 82 -57 33
-10 60 -22 60 -26 0 -5 7 -8 15 -8 22 0 18 17 -5 23 -11 3 -20 10 -20 16 0 15
47 14 57 -1 4 -7 17 -18 28 -24 27 -15 140 8 177 36 18 13 43 20 72 20 40 0
46 -3 52 -25 6 -26 28 -33 40 -14 4 6 20 8 39 5 24 -5 34 -2 39 9 7 19 79 20
95 1 9 -11 8 -17 -3 -29 -9 -8 -21 -17 -27 -19 -12 -4 8 -58 23 -58 4 0 8 -7
8 -15 0 -8 -4 -15 -10 -15 -5 0 -10 5 -10 10 0 6 -12 16 -27 22 -16 7 -36 18
-45 26 -25 21 -53 6 -76 -41 -24 -48 -39 -127 -24 -127 5 0 12 -11 14 -25 4
-20 3 -23 -8 -14 -25 21 -16 -20 13 -60 30 -42 75 -67 101 -56 43 19 242 28
662 31 567 4 518 2 500 14 -8 5 -33 10 -56 10 -44 0 -121 23 -169 51 -16 9
-67 27 -113 39 -65 18 -95 32 -138 67 -30 24 -54 48 -54 53 0 6 -19 22 -42 36
-24 15 -45 31 -48 35 -8 12 -86 102 -149 173 -30 34 -68 69 -85 78 -59 33 -98
48 -109 41 -6 -3 -7 -1 -3 5 4 7 1 12 -8 12 -8 0 -20 8 -25 18 -6 9 -11 13
-11 9 0 -5 -11 5 -25 21 -13 16 -54 48 -90 72 -36 23 -65 46 -65 50 0 11 -76
53 -135 75 -47 17 -124 63 -153 92 -7 7 -17 13 -21 13 -4 0 -38 32 -76 70 -39
39 -81 77 -95 85 -14 7 -61 47 -105 88 -44 42 -84 73 -89 70 -5 -4 -7 1 -3 10
3 9 0 18 -9 21 -9 3 -14 20 -14 44 0 41 -22 73 -35 52 -4 -6 -4 -14 -1 -17 3
-4 6 0 7 8 0 8 5 1 10 -16 4 -16 6 -47 2 -67 -3 -24 -2 -38 5 -38 6 0 12 5 14
10 2 6 4 -16 5 -49 l1 -59 -44 -4 c-30 -2 -50 2 -60 12 -11 10 -18 11 -21 4
-3 -9 -13 -9 -36 -2 -50 16 -62 24 -62 39 0 11 17 13 80 10 44 -1 86 -8 93
-13 20 -17 25 -3 16 54 -6 42 -9 48 -14 28 -6 -24 -9 -25 -80 -25 -52 0 -78
-4 -86 -14 -9 -11 -11 -11 -11 3 0 9 4 16 9 16 4 0 8 9 8 19 0 16 -8 20 -42
23 -26 2 -43 8 -45 18 -3 9 -1 11 4 4 10 -13 83 -16 83 -3 0 5 18 9 41 9 l41
0 -4 45 c-3 42 -2 44 19 40 50 -9 7 41 -73 86 -32 18 -93 56 -134 85 -41 28
-97 64 -125 79 -27 14 -60 38 -73 51 -12 13 -37 31 -55 40 -18 9 -35 22 -39
28 -4 6 -11 11 -15 11 -4 0 -22 10 -40 23 -17 12 -35 22 -40 22 -4 0 -14 9
-21 21 -7 12 -16 19 -18 16 -4 -4 -50 31 -96 76 -10 9 -22 17 -28 17 -5 0 -14
9 -20 20 -6 11 -16 20 -23 20 -7 0 -18 9 -25 20 -7 11 -19 20 -27 20 -8 0 -15
4 -15 9 0 5 -8 12 -17 15 -10 3 -46 32 -81 65 -34 32 -86 71 -115 86 -28 16
-68 40 -87 55 -19 15 -48 35 -65 44 -16 9 -52 35 -80 57 -27 22 -95 62 -149
90 -100 50 -115 52 -116 10 0 -11 -3 -11 -15 -1 -10 9 -15 9 -15 1 0 -17 -50
-13 -56 4 -8 19 -34 20 -34 1 0 -8 -9 -21 -21 -29 -14 -11 -17 -17 -9 -22 7
-4 15 -4 19 1 3 5 18 10 34 12 19 2 27 -2 27 -13 0 -8 -4 -15 -10 -15 -10 0
-3 -54 11 -82 5 -10 17 -15 28 -13 14 3 18 -1 14 -12 -4 -11 -8 -12 -14 -2 -5
8 -9 2 -11 -17 -2 -21 -11 -33 -33 -42 -16 -8 -39 -28 -50 -45 -11 -18 -30
-33 -43 -35 -12 -2 -22 -8 -22 -13 0 -5 -9 -9 -20 -9 -23 0 -41 29 -37 62 2
19 -3 23 -27 23 -26 0 -29 4 -33 40 -2 22 -4 55 -4 73 1 33 -28 59 -37 34 -5
-16 -51 -15 -57 1 -3 8 -26 12 -63 12 l-57 0 0 -54 c0 -51 -2 -55 -27 -62 -16
-4 -28 -3 -30 3 -2 6 -10 3 -17 -6 -11 -14 -11 -16 3 -16 17 0 22 -25 6 -35
-6 -3 -6 -15 0 -30 7 -18 5 -32 -8 -55 -29 -51 -35 -39 -16 29 l7 25 -31 -23
c-32 -22 -32 -22 -32 -2 0 12 -5 30 -12 40 -11 18 -12 18 -32 0 -22 -21 -36
-24 -36 -9 0 13 -37 13 -46 -1 -3 -6 -17 -8 -29 -5 -31 8 -42 -11 -19 -29 17
-13 14 -14 -28 -15 -27 0 -48 -4 -48 -10 0 -5 -4 -10 -10 -10 -5 0 -10 7 -10
15 0 8 -4 15 -10 15 -5 0 -10 7 -10 15 0 8 5 15 11 15 19 0 39 28 39 54 0 19
-9 32 -32 46 -47 28 -71 50 -96 91 -13 22 -38 43 -64 55 -24 10 -54 28 -67 40
-20 19 -21 24 -11 44 7 13 10 42 7 66 -4 36 0 48 19 69 28 30 21 42 -33 64
-29 12 -34 11 -54 -8 -20 -18 -20 -21 -6 -27 34 -13 19 -39 -30 -53 -46 -12
-49 -11 -70 13 -22 26 -23 26 -68 11 -43 -15 -47 -15 -73 4 -15 10 -38 31 -51
45 -27 28 -41 33 -41 13z m1562 -277 c-10 -12 -18 -16 -21 -9 -2 6 3 15 10 20
24 15 29 10 11 -11z m-22 -61 c0 -5 -4 -9 -10 -9 -5 0 -10 7 -10 16 0 8 5 12
10 9 6 -3 10 -10 10 -16z m17 -21 c-3 -7 -5 -2 -5 12 0 14 2 19 5 13 2 -7 2
-19 0 -25z m-461 -129 c-3 -16 -13 -37 -21 -45 -8 -9 -15 -22 -15 -29 0 -8 -9
-17 -20 -20 -11 -4 -18 -11 -15 -16 8 -12 45 -12 45 1 0 6 7 10 15 10 15 0 55
19 65 31 3 3 12 8 20 12 8 4 22 12 31 19 13 9 20 8 33 -4 13 -13 15 -29 10
-75 l-6 -60 -39 11 c-35 9 -41 8 -53 -10 -17 -24 -64 -74 -88 -92 -14 -11 -20
-9 -42 11 -24 22 -38 66 -18 53 5 -3 15 5 21 18 11 19 10 29 -2 52 -11 21 -12
35 -5 48 5 10 8 27 5 38 -8 30 2 46 34 53 16 4 31 11 34 16 12 18 17 8 11 -22z
m-644 -97 c42 -19 43 -21 24 -47 -12 -17 -18 -18 -37 -8 -13 7 -35 13 -49 15
-25 3 -37 26 -26 54 6 17 25 14 88 -14z m2578 -712 c10 -19 8 -20 -40 -20 -44
0 -49 2 -38 14 12 12 33 20 60 25 4 0 12 -8 18 -19z m-55 -60 c3 -5 -3 -10
-15 -10 -12 0 -18 5 -15 10 3 6 10 10 15 10 5 0 12 -4 15 -10z m335 -215 c0
-8 -4 -15 -8 -15 -5 0 -9 7 -9 15 0 8 4 15 9 15 4 0 8 -7 8 -15z m-992 -47
c-3 -24 -3 -35 -1 -25 3 9 9 17 14 17 5 0 10 -8 10 -17 1 -17 2 -17 6 0 6 23
83 25 83 2 0 -11 11 -15 40 -15 38 0 45 6 41 37 -1 9 4 9 24 0 18 -9 25 -20
25 -41 0 -24 3 -27 21 -23 12 3 33 1 48 -6 28 -11 37 -13 89 -16 31 -1 32 -2
31 -43 0 -24 -3 -37 -6 -30 -3 8 -29 12 -79 12 l-74 0 0 -90 c0 -79 2 -90 18
-90 16 -1 16 -1 0 -14 -23 -17 -23 -31 2 -56 19 -19 38 -11 25 11 -4 5 -4 21
-1 35 5 17 13 24 31 24 22 0 25 4 25 40 l0 40 50 0 c38 0 50 -4 50 -15 0 -8 5
-15 10 -15 6 0 10 -12 10 -28 l0 -27 80 3 c44 2 80 1 80 -4 0 -11 -41 -54 -52
-54 -4 0 -8 7 -8 15 0 8 -4 15 -9 15 -17 0 -22 -19 -12 -39 8 -15 7 -20 -6
-25 -19 -8 -53 2 -53 15 0 12 -13 11 -47 -2 -40 -16 -81 -20 -88 -9 -11 18
-25 11 -26 -12 l-2 -23 -4 23 c-5 27 -23 29 -23 2 0 -20 -1 -20 -27 -3 -14 10
-43 19 -62 20 -26 2 -32 0 -21 -7 13 -8 13 -10 -2 -10 -9 0 -18 5 -20 10 -2 7
-27 3 -67 -10 -43 -13 -67 -17 -71 -10 -4 6 -15 8 -26 4 -24 -9 -12 5 18 21
16 8 22 19 20 35 -3 29 -11 38 -20 23 -5 -8 -16 -4 -34 11 l-28 22 26 2 c17 1
23 -2 18 -10 -4 -7 -3 -8 5 -4 6 4 9 11 6 16 -6 10 19 20 51 20 13 0 24 5 24
10 0 6 18 10 40 10 29 0 40 4 40 15 0 12 -14 15 -69 15 -49 0 -74 5 -85 15 -8
8 -18 15 -22 15 -5 0 -3 -5 4 -12 20 -20 13 -32 -8 -13 -25 23 -25 41 0 83 20
32 26 52 13 39 -11 -12 -33 15 -43 55 -8 28 -8 49 0 74 16 46 23 43 18 -8z
m959 36 c-3 -3 -12 -4 -19 -1 -8 3 -5 6 6 6 11 1 17 -2 13 -5z m-270 -70 c-3
-3 -12 -4 -19 -1 -8 3 -5 6 6 6 11 1 17 -2 13 -5z m-251 -28 c11 -8 33 -16 49
-19 24 -3 21 -4 -12 -6 -24 0 -43 3 -43 8 0 5 -7 8 -16 7 -9 0 -19 5 -21 12
-6 16 18 15 43 -2z m127 -23 c-7 -2 -19 -2 -25 0 -7 3 -2 5 12 5 14 0 19 -2
13 -5z m247 -17 c0 -32 -10 -57 -20 -51 -5 3 -6 14 -3 25 6 23 -6 26 -26 8
-11 -11 -13 -9 -8 9 2 12 0 24 -7 27 -6 2 6 5 27 5 33 1 37 -2 37 -23z m-856
-55 c4 -5 -3 -7 -14 -4 -23 6 -26 13 -6 13 8 0 17 -4 20 -9z m740 -67 c9 -22
8 -24 -9 -24 -8 0 -15 9 -15 20 0 24 15 27 24 4z m51 -24 c3 -6 -4 -10 -17
-10 -18 0 -20 2 -8 10 19 12 18 12 25 0z m-235 -16 c0 -8 -4 -12 -10 -9 -5 3
-10 10 -10 16 0 5 5 9 10 9 6 0 10 -7 10 -16z m190 -129 c5 3 11 1 15 -5 4 -6
-5 -10 -19 -10 -20 0 -26 5 -26 23 1 20 2 20 11 4 6 -9 14 -15 19 -12z m-110
-67 c0 -4 -9 -8 -20 -8 -11 0 -20 4 -20 9 0 6 9 9 20 8 11 -1 20 -5 20 -9z
m-76 -210 c8 -13 5 -23 -14 -43 -13 -14 -26 -25 -30 -25 -4 0 -28 16 -54 37
-55 43 -48 54 33 51 38 -2 57 -8 65 -20z m1330 -37 c13 -14 15 -24 8 -38 -6
-10 -8 -31 -5 -46 4 -22 2 -27 -16 -27 -11 0 -21 6 -21 14 0 7 -9 16 -20 19
-16 4 -19 13 -18 51 0 43 2 46 28 46 15 0 35 -9 44 -19z m-204 -291 c6 9 10
10 10 3 0 -6 3 -18 6 -26 3 -8 -1 -21 -8 -28 -8 -8 -17 -22 -21 -31 -3 -10
-15 -18 -26 -18 -17 0 -18 4 -8 41 8 35 8 43 -6 51 -10 5 -17 14 -17 19 0 6
14 2 30 -8 27 -16 32 -16 40 -3z m90 -10 c0 -5 -7 -10 -15 -10 -8 0 -15 5 -15
10 0 6 7 10 15 10 8 0 15 -4 15 -10z"/>
<path d="M3090 4936 c0 -9 5 -16 10 -16 6 0 10 4 10 9 0 6 -4 13 -10 16 -5 3
-10 -1 -10 -9z"/>
<path d="M3105 4820 c-3 -5 -1 -10 4 -10 6 0 11 5 11 10 0 6 -2 10 -4 10 -3 0
-8 -4 -11 -10z"/>
<path d="M3200 4660 c-12 -23 -6 -40 16 -40 8 0 14 10 14 24 0 33 -16 42 -30
16z"/>
<path d="M3205 4600 c-7 -12 2 -12 30 0 19 8 19 9 -2 9 -12 1 -25 -3 -28 -9z"/>
<path d="M3153 4583 c9 -2 23 -2 30 0 6 3 -1 5 -18 5 -16 0 -22 -2 -12 -5z"/>
<path d="M3441 6614 c0 -11 3 -14 6 -6 3 7 2 16 -1 19 -3 4 -6 -2 -5 -13z"/>
<path d="M8689 6620 c-1 -8 -1 -18 0 -22 0 -4 -6 -23 -14 -42 -9 -21 -11 -36
-5 -36 5 0 10 5 10 11 0 6 6 9 14 6 19 -7 36 12 36 42 0 13 -3 21 -7 17 -4 -3
-13 4 -20 16 -8 16 -13 18 -14 8z m21 -54 c0 -3 -4 -8 -10 -11 -5 -3 -10 -1
-10 4 0 6 5 11 10 11 6 0 10 -2 10 -4z"/>
<path d="M9143 6598 c-18 -13 -33 -30 -34 -38 0 -10 -2 -11 -6 -2 -2 6 -9 10
-14 6 -5 -3 -7 -10 -4 -15 10 -16 33 -10 40 10 3 11 12 21 19 24 11 4 12 -3 4
-36 -24 -113 -54 -180 -77 -172 -13 4 -24 -7 -41 -42 -14 -27 -23 -52 -22 -57
2 -5 -1 -12 -5 -15 -5 -3 -17 -27 -27 -54 -19 -51 -50 -77 -69 -58 -20 20 -42
11 -65 -25 -17 -27 -28 -34 -42 -29 -14 4 -20 2 -20 -9 0 -9 4 -16 9 -16 5 0
11 -7 15 -15 4 -12 -1 -15 -22 -13 -15 1 -33 -1 -40 -6 -31 -19 -83 -12 -102
14 -11 16 -88 58 -117 64 -27 6 -48 28 -45 46 0 3 -11 5 -24 5 -13 0 -24 -3
-24 -7 0 -5 -7 -8 -15 -8 -12 0 -7 11 16 39 18 23 28 45 24 51 -10 16 -60 5
-92 -20 -20 -15 -29 -17 -39 -9 -18 15 -54 5 -82 -21 -18 -17 -26 -19 -42 -10
-17 9 -34 6 -81 -12 -60 -23 -70 -36 -45 -57 17 -14 41 -5 70 28 11 12 24 21
29 21 6 0 8 -3 4 -6 -3 -3 -1 -17 4 -31 8 -21 4 -31 -21 -59 -34 -40 -36 -47
-15 -64 22 -18 35 -2 42 49 15 111 178 129 238 27 14 -24 25 -54 25 -69 0 -36
13 -41 68 -26 41 10 52 9 77 -4 l30 -16 -29 -1 c-36 0 -32 -5 12 -13 24 -5 31
-3 27 6 -4 6 -1 5 7 -4 30 -36 120 -68 198 -69 25 0 53 -7 63 -15 29 -21 57
-81 57 -120 0 -25 8 -44 26 -62 32 -32 36 -52 16 -75 -14 -16 -13 -20 1 -36
31 -34 31 -76 3 -137 -31 -67 -30 -65 -11 -65 13 0 99 165 135 257 16 42 5 59
-22 33 -45 -41 -76 -13 -60 53 6 23 13 54 17 69 3 18 14 30 30 34 28 7 48 -3
39 -18 -5 -7 -2 -8 6 -3 7 4 16 2 20 -6 16 -25 38 10 44 69 3 31 8 75 11 98 6
36 4 42 -20 58 -14 9 -32 15 -38 12 -7 -2 -4 -5 6 -5 9 -1 17 -6 17 -12 0 -6
-9 -8 -20 -4 -15 5 -20 2 -21 -12 0 -11 -3 -13 -6 -5 -6 16 19 102 30 102 5 0
7 5 5 11 -2 6 -7 10 -11 10 -4 -1 -16 8 -27 19 -14 14 -27 18 -50 14 -27 -6
-30 -4 -30 17 0 31 9 43 45 63 l30 16 -39 -6 c-38 -7 -39 -6 -32 17 5 13 9 35
9 49 1 14 5 25 8 25 14 0 38 28 44 53 4 15 12 41 20 57 7 17 21 51 31 77 11
27 22 48 27 48 4 0 7 14 7 30 0 36 -14 38 -57 8z"/>
<path d="M4701 6564 c0 -11 3 -14 6 -6 3 7 2 16 -1 19 -3 4 -6 -2 -5 -13z"/>
<path d="M4670 6525 c0 -8 -5 -15 -11 -15 -6 0 -8 -9 -3 -22 4 -13 7 -29 7
-35 0 -7 2 -11 5 -9 5 6 11 96 6 96 -2 0 -4 -7 -4 -15z"/>
<path d="M9260 6506 c0 -8 4 -17 9 -20 5 -4 7 3 4 14 -6 23 -13 26 -13 6z"/>
<path d="M3360 6490 c0 -13 5 -20 13 -17 6 2 12 10 12 17 0 7 -6 15 -12 18 -8
2 -13 -5 -13 -18z"/>
<path d="M3322 6474 l-23 -24 26 0 c20 0 25 5 25 25 0 30 1 30 -28 -1z"/>
<path d="M4680 6489 c0 -5 5 -7 10 -4 6 3 10 8 10 11 0 2 -4 4 -10 4 -5 0 -10
-5 -10 -11z"/>
<path d="M9250 6469 c0 -8 -13 -30 -28 -49 -28 -35 -77 -158 -66 -169 2 -3 14
1 26 8 19 12 20 11 15 -8 -6 -24 1 -26 23 -8 9 7 17 26 18 44 1 18 7 44 12 59
6 14 8 30 4 35 -3 5 0 25 6 45 9 26 9 39 1 47 -8 8 -11 7 -11 -4z m-33 -91
c-3 -8 -6 -5 -6 6 -1 11 2 17 5 13 3 -3 4 -12 1 -19z m24 -25 c-12 -20 -14
-14 -5 12 4 9 9 14 11 11 3 -2 0 -13 -6 -23z m-22 -72 c0 -14 -1 -14 -6 -1 -3
8 -10 24 -15 35 -9 20 -9 20 6 1 9 -11 16 -27 15 -35z"/>
<path d="M2636 6442 c-5 -9 20 -33 129 -122 28 -23 83 -57 123 -76 40 -20 94
-50 121 -68 26 -18 55 -32 64 -30 10 1 14 -3 10 -12 -4 -10 0 -12 11 -8 9 3
16 11 16 17 0 6 3 7 6 4 4 -4 2 -12 -4 -19 -7 -9 -7 -17 2 -28 15 -19 52 -40
71 -40 8 0 15 -6 15 -14 0 -10 8 -13 21 -11 26 5 59 33 59 50 0 7 7 16 16 19
24 9 27 8 21 -14 -3 -11 -1 -18 4 -14 5 3 9 14 9 25 0 19 -14 24 -54 20 -11
-1 -17 2 -13 5 4 4 -3 12 -16 19 -43 23 -72 40 -91 55 -10 8 -42 29 -72 45
-29 17 -92 52 -139 79 -144 81 -296 139 -309 118z m532 -316 c-7 -8 -17 -12
-22 -9 -4 3 -2 9 5 14 22 13 31 11 17 -5z"/>
<path d="M3306 6425 c4 -8 8 -15 10 -15 2 0 4 7 4 15 0 8 -4 15 -10 15 -5 0
-7 -7 -4 -15z"/>
<path d="M8092 6400 c8 -26 35 -35 53 -17 15 16 15 17 -3 17 -11 0 -28 3 -38
7 -11 4 -15 2 -12 -7z"/>
<path d="M8175 6391 c3 -6 -2 -11 -12 -12 -28 -1 153 -48 232 -61 50 -7 78 -7
98 1 33 13 35 27 5 37 -13 4 -26 11 -30 17 -6 11 -29 13 -202 23 -68 4 -96 2
-91 -5z"/>
<path d="M4633 6341 c-8 -13 -9 -22 -3 -26 11 -7 24 18 18 35 -2 6 -9 1 -15
-9z"/>
<path d="M2177 6333 c-3 -5 1 -19 9 -33 l13 -25 1 27 c0 27 -14 45 -23 31z"/>
<path d="M8072 6328 c-7 -7 -12 -26 -12 -43 0 -59 68 -69 91 -14 10 25 9 32
-6 49 -20 22 -55 26 -73 8z"/>
<path d="M5146 6302 c-7 -20 1 -52 13 -52 4 0 16 8 27 18 17 17 20 17 31 3 6
-9 15 -12 19 -8 11 11 -26 45 -58 52 -20 5 -27 3 -32 -13z"/>
<path d="M8140 6226 c0 -2 8 -10 18 -17 15 -13 16 -12 3 4 -13 16 -21 21 -21
13z"/>
<path d="M3725 6193 c11 -3 25 -10 30 -15 7 -7 2 -8 -15 -3 -24 7 -24 7 -5 -9
23 -18 39 -21 30 -6 -4 7 2 9 19 4 23 -5 26 -3 26 17 -1 22 -2 23 -14 6 -10
-13 -15 -14 -19 -5 -2 8 -20 14 -38 15 -19 0 -25 -1 -14 -4z"/>
<path d="M4401 6184 c0 -11 3 -14 6 -6 3 7 2 16 -1 19 -3 4 -6 -2 -5 -13z"/>
<path d="M3820 6170 c0 -5 5 -10 10 -10 6 0 10 5 10 10 0 6 -4 10 -10 10 -5 0
-10 -4 -10 -10z"/>
<path d="M9556 6124 c-9 -23 -8 -24 12 -23 9 0 12 3 5 5 -7 3 -9 12 -6 20 3 8
3 14 0 14 -3 0 -8 -7 -11 -16z"/>
<path d="M3850 6116 c0 -2 7 -6 15 -10 8 -3 15 -1 15 4 0 6 -7 10 -15 10 -8 0
-15 -2 -15 -4z"/>
<path d="M3903 6113 c-14 -5 -18 -25 -5 -21 4 1 17 -3 30 -10 12 -7 27 -10 32
-7 6 3 10 1 10 -6 0 -7 3 -9 6 -6 4 4 16 -3 26 -15 15 -17 23 -20 35 -12 29
18 27 34 -5 34 -17 0 -37 6 -44 13 -7 8 -19 12 -26 9 -6 -2 -12 1 -12 6 0 6 8
13 18 15 13 4 11 5 -5 6 -16 1 -23 -5 -23 -16 -1 -16 -2 -16 -13 -2 -7 9 -18
14 -24 12z"/>
<path d="M4050 6102 c0 -10 7 -19 15 -19 8 0 15 9 15 19 0 10 -7 18 -15 18 -8
0 -15 -8 -15 -18z"/>
<path d="M4358 6113 c7 -3 16 -2 19 1 4 3 -2 6 -13 5 -11 0 -14 -3 -6 -6z"/>
<path d="M3990 6099 c0 -5 5 -7 10 -4 6 3 10 8 10 11 0 2 -4 4 -10 4 -5 0 -10
-5 -10 -11z"/>
<path d="M9604 6085 c11 -8 24 -15 30 -15 5 0 1 7 -10 15 -10 8 -23 14 -29 14
-5 0 -1 -6 9 -14z"/>
<path d="M3292 6060 c0 -14 2 -19 5 -12 2 6 2 18 0 25 -3 6 -5 1 -5 -13z"/>
<path d="M7935 6069 c-4 -6 -1 -15 6 -20 21 -14 64 -6 64 11 0 18 -60 26 -70
9z"/>
<path d="M3375 6059 c5 -8 1 -9 -13 -5 -11 4 -23 2 -26 -3 -4 -6 5 -8 21 -7
16 2 39 4 52 5 29 1 26 6 -12 15 -20 5 -27 3 -22 -5z"/>
<path d="M3443 6034 c0 -16 13 -19 21 -5 3 5 0 11 -7 14 -8 3 -14 -1 -14 -9z"/>
<path d="M3263 6018 c1 -15 6 -23 11 -18 4 4 4 16 -2 26 -9 16 -10 14 -9 -8z"/>
<path d="M4055 6031 c-7 -12 56 -43 76 -39 8 2 13 -3 11 -12 -3 -12 -1 -13 9
-3 10 10 9 16 -7 31 -10 10 -28 21 -39 25 -20 7 -20 7 -1 -8 27 -21 15 -28
-18 -11 -18 9 -23 16 -14 19 9 4 9 6 1 6 -6 1 -14 -3 -18 -8z"/>
<path d="M4140 6030 c0 -5 5 -10 11 -10 5 0 7 5 4 10 -3 6 -8 10 -11 10 -2 0
-4 -4 -4 -10z"/>
<path d="M5132 6009 c10 -30 33 -48 45 -35 4 3 -2 12 -12 20 -16 12 -17 16 -6
30 12 14 10 16 -12 16 -25 0 -25 -2 -15 -31z"/>
<path d="M9710 6011 c0 -5 5 -13 10 -16 6 -3 10 -2 10 4 0 5 -4 13 -10 16 -5
3 -10 2 -10 -4z"/>
<path d="M3491 5996 c13 -6 26 -14 29 -17 3 -4 19 -10 35 -14 l30 -6 -34 19
c-20 11 -29 21 -21 24 7 2 -4 4 -25 4 -35 0 -36 -1 -14 -10z"/>
<path d="M3446 5983 c2 -7 -1 -15 -6 -18 -6 -4 -10 -12 -10 -18 0 -9 3 -8 9 1
4 7 21 17 37 22 l29 8 -27 1 c-14 1 -28 4 -31 9 -2 4 -2 2 -1 -5z"/>
<path d="M3500 5950 c0 -5 5 -10 10 -10 6 0 10 5 10 10 0 6 -4 10 -10 10 -5 0
-10 -4 -10 -10z"/>
<path d="M3606 5944 c-4 -10 -1 -14 6 -12 15 5 23 28 10 28 -5 0 -13 -7 -16
-16z"/>
<path d="M4213 5952 c-9 -6 -8 -12 6 -24 26 -22 53 -35 69 -32 6 1 21 2 32 3
30 2 25 34 -7 47 -34 14 -84 16 -100 6z"/>
<path d="M8488 5953 c6 -2 18 -2 25 0 6 3 1 5 -13 5 -14 0 -19 -2 -12 -5z"/>
<path d="M3378 5943 c12 -2 22 -9 22 -14 0 -5 10 -8 23 -8 16 1 18 2 5 6 -10
2 -18 9 -18 14 0 5 -12 8 -27 8 -24 -2 -25 -2 -5 -6z"/>
<path d="M12539 5932 c-19 -22 -13 -42 11 -42 12 0 18 8 18 25 0 33 -11 38
-29 17z"/>
<path d="M3335 5930 c3 -5 11 -10 16 -10 6 0 7 5 4 10 -3 6 -11 10 -16 10 -6
0 -7 -4 -4 -10z"/>
<path d="M3371 5914 c0 -11 3 -14 6 -6 3 7 2 16 -1 19 -3 4 -6 -2 -5 -13z"/>
<path d="M3630 5915 c0 -8 5 -15 10 -15 6 0 10 7 10 15 0 8 -4 15 -10 15 -5 0
-10 -7 -10 -15z"/>
<path d="M3685 5920 c3 -5 8 -10 11 -10 2 0 4 5 4 10 0 6 -5 10 -11 10 -5 0
-7 -4 -4 -10z"/>
<path d="M3715 5910 c3 -5 8 -10 11 -10 2 0 4 5 4 10 0 6 -5 10 -11 10 -5 0
-7 -4 -4 -10z"/>
<path d="M5149 5894 c-10 -28 -4 -64 12 -64 5 0 9 5 9 10 0 6 7 10 15 10 18 0
20 41 3 58 -18 18 -27 15 -39 -14z"/>
<path d="M3673 5899 c7 -21 -61 -89 -71 -72 -4 6 -25 13 -47 15 -37 3 -40 5
-37 31 3 30 -17 37 -38 12 -7 -8 -16 -12 -21 -9 -5 3 -9 -2 -9 -11 0 -9 6 -15
13 -14 6 1 19 1 27 0 12 -1 12 -3 2 -9 -9 -6 -5 -12 13 -22 14 -7 25 -17 25
-22 0 -5 5 -6 10 -3 6 3 10 2 10 -4 0 -6 7 -8 15 -5 9 4 15 0 15 -9 0 -8 10
-21 23 -30 12 -8 33 -25 47 -39 14 -13 93 -68 175 -122 154 -101 181 -119 275
-183 30 -21 56 -37 57 -36 1 1 18 -13 38 -32 21 -18 58 -44 83 -57 25 -12 51
-26 57 -31 5 -4 26 -17 45 -30 21 -14 39 -35 45 -55 5 -17 12 -32 15 -32 4 0
38 -24 77 -54 39 -29 91 -63 115 -74 23 -11 82 -38 129 -60 50 -23 122 -69
170 -107 46 -38 107 -83 134 -101 28 -19 68 -55 90 -80 36 -43 117 -104 137
-104 4 0 9 10 9 23 1 17 2 18 6 4 4 -15 7 -16 21 -5 13 11 15 10 9 -5 -4 -11
-1 -20 8 -23 8 -4 12 -10 9 -15 -3 -5 -1 -9 5 -9 6 0 29 -19 52 -42 42 -43
103 -84 169 -114 19 -8 87 -40 150 -69 69 -32 147 -60 195 -70 44 -9 99 -23
123 -31 40 -13 152 -17 152 -4 -1 11 -197 148 -260 182 -71 38 -140 76 -210
117 -38 22 -58 26 -131 27 -118 2 -147 20 -168 107 -8 35 -23 59 -56 91 -25
23 -45 49 -45 57 0 15 -61 76 -181 179 -85 73 -118 120 -213 301 -75 143 -76
144 -196 154 -65 5 -84 12 -143 48 -113 69 -120 73 -172 91 -45 16 -112 51
-191 99 -128 79 -431 237 -455 237 -11 0 -18 4 -14 9 3 5 1 12 -5 16 -5 3 -10
2 -10 -3 0 -6 -12 -13 -26 -16 -19 -5 -30 -2 -41 11 -12 15 -14 15 -10 2z
m-45 -116 c-3 -19 -38 -31 -38 -14 0 6 7 8 15 5 8 -4 15 -1 15 4 0 6 -8 13
-17 15 -13 3 -12 5 5 6 17 1 23 -4 20 -16z m135 10 c-7 -2 -21 -2 -30 0 -10 3
-4 5 12 5 17 0 24 -2 18 -5z m1577 -1157 c0 -17 -2 -18 -10 -6 -8 13 -10 12
-10 -2 0 -16 11 -23 33 -19 4 0 7 -3 7 -9 0 -5 -9 -10 -20 -10 -22 0 -43 40
-34 64 8 21 34 8 34 -18z"/>
<path d="M3403 5893 c10 -3 14 -9 10 -16 -5 -9 -3 -9 8 -1 8 7 23 14 34 17 11
2 0 5 -25 5 -25 0 -37 -2 -27 -5z"/>
<path d="M3600 5890 c0 -5 5 -10 10 -10 6 0 10 5 10 10 0 6 -4 10 -10 10 -5 0
-10 -4 -10 -10z"/>
<path d="M8412 5893 c-8 -3 -5 -10 10 -23 l23 -19 -22 2 c-12 0 -20 4 -17 8 8
13 -20 17 -86 12 -69 -6 -123 -29 -100 -43 7 -5 21 -3 31 3 13 8 21 7 33 -2
18 -15 21 -41 5 -41 -6 0 -9 -6 -6 -14 3 -7 0 -19 -6 -25 -8 -8 1 -11 36 -11
28 0 47 -5 47 -11 0 -8 20 -10 59 -7 33 2 58 2 56 -2 -5 -8 43 -5 52 3 3 4 -1
7 -10 7 -20 0 -20 2 -6 34 13 29 33 24 24 -5 -4 -11 -2 -19 4 -19 6 0 11 8 11
18 0 14 2 15 9 2 6 -8 8 -17 5 -21 -7 -12 57 -22 68 -11 19 19 -1 61 -40 85
-137 86 -151 92 -180 80z m-30 -35 c-9 -9 -15 -9 -24 0 -9 9 -7 12 12 12 19 0
21 -3 12 -12z m45 -32 c-4 -9 2 -17 15 -21 13 -5 17 -10 10 -17 -12 -12 -52
-1 -52 13 0 9 21 38 29 39 2 0 1 -7 -2 -14z m43 -7 c0 -5 5 -7 12 -3 6 4 8 3
5 -4 -4 -5 -16 -8 -27 -5 -11 3 -17 9 -14 14 7 12 24 11 24 -2z m38 -26 c-9
-10 -18 -27 -21 -38 -4 -19 -5 -18 -6 2 0 12 6 29 15 37 21 22 31 20 12 -1z"/>
<path d="M5004 5825 c9 -73 18 -105 29 -105 15 0 2 94 -17 121 l-18 24 6 -40z"/>
<path d="M5166 5774 c-4 -9 -1 -23 5 -30 9 -11 8 -18 -1 -29 -9 -10 -9 -15 -1
-15 17 0 13 -27 -6 -34 -14 -6 -9 -14 27 -45 46 -40 50 -66 6 -37 -14 9 -28
16 -30 16 -9 0 -56 -109 -56 -129 0 -20 29 -51 51 -52 8 0 1 -6 -15 -13 -18
-8 -24 -16 -17 -20 6 -4 11 -20 11 -36 0 -17 7 -33 17 -39 14 -7 15 -12 4 -25
-16 -20 -7 -68 25 -123 30 -52 131 -136 155 -130 10 3 20 0 23 -7 2 -6 5 -3 5
7 1 9 7 26 13 37 10 16 10 24 0 40 -15 25 -15 47 1 53 9 3 9 9 -2 30 -8 14
-18 24 -22 21 -4 -2 -6 5 -4 18 3 12 -2 29 -11 39 -8 9 -16 27 -16 40 -1 13
-8 33 -15 44 -7 11 -13 32 -13 47 0 15 -5 30 -10 33 -6 3 -8 18 -4 33 3 15 7
36 9 48 3 15 -3 24 -20 32 -20 9 -25 18 -23 42 1 16 6 30 11 30 6 0 -3 10 -18
22 -26 20 -27 22 -9 35 15 11 16 17 7 32 -7 11 -8 23 -2 32 13 21 11 25 -16
37 -35 16 -52 15 -59 -4z"/>
<path d="M7737 5724 c-3 -3 -3 -12 -1 -19 3 -7 1 -16 -5 -20 -21 -12 -11 -24
19 -20 16 2 32 -1 35 -6 11 -17 70 -10 82 11 11 16 10 21 -5 29 -20 11 -74 3
-66 -10 3 -5 -2 -6 -9 -3 -8 3 -17 14 -20 25 -5 19 -18 25 -30 13z"/>
<path d="M6351 5704 c0 -11 3 -14 6 -6 3 7 2 16 -1 19 -3 4 -6 -2 -5 -13z"/>
<path d="M8130 5700 c0 -5 5 -10 10 -10 6 0 10 5 10 10 0 6 -4 10 -10 10 -5 0
-10 -4 -10 -10z"/>
<path d="M8175 5700 c19 -8 19 -9 -2 -9 -22 -1 -44 -21 -23 -21 13 0 70 29 70
35 0 3 -15 5 -32 4 -28 0 -30 -2 -13 -9z"/>
<path d="M6367 5680 c-3 -11 -1 -23 4 -26 5 -3 9 6 9 20 0 31 -6 34 -13 6z"/>
<path d="M8740 5677 c0 -8 7 -18 16 -21 11 -4 14 -1 12 11 -4 21 -28 30 -28
10z"/>
<path d="M5025 5590 c3 -5 8 -10 11 -10 2 0 4 5 4 10 0 6 -5 10 -11 10 -5 0
-7 -4 -4 -10z"/>
<path d="M8817 5383 c-12 -11 -8 -51 6 -56 17 -6 47 11 47 28 0 8 -9 19 -19
25 -23 12 -26 12 -34 3z"/>
<path d="M4003 5235 c0 -8 4 -15 9 -15 4 0 8 4 8 9 0 6 -4 12 -8 15 -5 3 -9
-1 -9 -9z"/>
<path d="M7940 5221 c0 -5 -16 -7 -35 -4 -23 3 -35 1 -35 -7 0 -8 -9 -10 -25
-6 -18 5 -25 2 -25 -8 0 -21 -37 -40 -43 -23 -4 9 -8 9 -15 -2 -11 -16 -4 -53
9 -45 5 3 9 -11 9 -31 0 -27 7 -42 28 -61 27 -24 27 -24 7 -39 -12 -10 -21
-12 -23 -5 -6 16 -22 11 -23 -7 -1 -12 -4 -10 -9 7 -6 18 -8 20 -9 7 -1 -10
-5 -16 -11 -12 -5 3 -7 13 -4 23 5 16 5 16 -5 0 -14 -21 5 -69 25 -61 8 3 18
-6 26 -21 7 -17 17 -25 26 -21 12 5 13 3 2 -10 -11 -13 -15 -13 -21 -3 -9 13
-10 11 -13 -14 0 -7 -19 -15 -41 -18 -34 -4 -41 -9 -45 -32 l-5 -26 -39 19
c-22 10 -42 23 -45 27 -4 5 -46 14 -96 20 l-90 11 -31 -34 c-18 -19 -34 -31
-38 -28 -7 7 -36 -16 -36 -28 0 -5 9 -9 20 -9 15 0 20 -7 20 -26 0 -42 -17
-63 -47 -59 -16 2 -33 4 -38 4 -6 1 -18 14 -27 29 -15 25 -24 29 -70 31 -29 1
-55 7 -59 12 -3 6 -15 3 -27 -8 -28 -23 -20 -56 16 -73 15 -7 35 -16 44 -21
10 -5 26 -9 37 -9 12 0 26 -12 35 -30 8 -16 10 -30 5 -30 -5 0 -9 6 -9 13 0 9
-3 8 -9 -2 -5 -7 -14 -10 -20 -7 -6 4 -11 2 -11 -3 0 -6 7 -11 15 -11 8 0 15
-7 15 -15 0 -18 -1 -18 -35 -5 -14 5 -24 14 -21 19 3 5 -1 12 -10 15 -21 8
-26 8 -20 -2 2 -4 -9 -17 -25 -27 -16 -11 -29 -28 -29 -37 0 -10 -4 -18 -10
-18 -5 0 -10 -7 -10 -15 0 -19 -10 -19 -35 -1 -27 18 -79 30 -70 16 3 -5 2
-10 -4 -10 -5 0 -13 5 -16 10 -3 6 -13 10 -21 10 -8 0 -12 -4 -9 -10 3 -5 1
-10 -5 -10 -6 0 -8 -5 -5 -10 4 -6 -5 -24 -19 -40 -14 -17 -28 -26 -31 -20
-10 16 -72 12 -90 -6 -16 -17 -95 -26 -95 -11 0 13 -41 7 -70 -9 -26 -16 -30
-16 -73 5 -35 17 -47 28 -49 49 -2 16 -12 31 -27 38 -13 7 -27 18 -32 25 -14
23 -139 -48 -139 -79 0 -12 79 -84 145 -132 61 -45 102 -83 126 -117 36 -50
358 -252 359 -225 0 4 6 0 13 -9 13 -17 103 -32 181 -29 31 1 52 -4 57 -12 11
-17 140 -13 227 7 40 10 117 15 212 15 82 0 161 5 176 11 16 5 49 29 74 53 25
24 74 64 108 89 34 25 75 57 90 70 67 61 112 97 177 143 39 27 79 56 90 65 11
9 58 48 105 85 46 38 98 84 115 103 82 93 94 127 48 133 -18 2 -29 10 -31 22
-3 16 1 17 37 11 67 -11 93 0 123 53 14 26 26 51 25 55 -2 10 -230 11 -314 1
-55 -6 -68 -4 -118 20 -52 26 -55 29 -55 65 0 38 22 77 65 113 27 23 34 22 45
-8 8 -20 16 -25 36 -22 37 4 51 30 38 66 -11 28 -10 28 25 28 31 -1 35 2 33
19 -7 35 -23 47 -56 40 -17 -4 -48 -6 -68 -6 -20 0 -40 -4 -43 -9 -9 -14 -36
-12 -69 5 -15 8 -43 15 -62 15 -22 0 -38 7 -47 21 l-15 21 -7 -22 c-4 -12 -9
-19 -12 -16 -3 3 -17 -6 -30 -20 -25 -28 -31 -20 -8 10 18 24 19 36 3 36 -6 0
-9 -3 -5 -6 3 -4 0 -13 -8 -21 -17 -16 -20 -63 -5 -63 6 0 10 -8 10 -17 0 -16
-2 -16 -11 -3 -9 12 -10 11 -6 -8 3 -12 1 -19 -4 -16 -5 3 -7 32 -5 64 4 58 3
60 -29 80 -36 22 -45 24 -45 11z m-290 -525 c0 -8 -5 -18 -11 -22 -6 -3 -8
-17 -5 -30 4 -14 2 -24 -4 -24 -5 0 -10 -9 -10 -19 0 -21 -27 -36 -32 -19 -2
6 -20 13 -39 14 -19 2 -47 8 -62 13 -16 6 -48 11 -72 11 -24 0 -47 5 -50 10
-4 6 10 10 35 10 22 0 56 6 75 14 18 8 43 12 54 9 11 -3 32 3 48 15 47 33 73
39 73 18z m-340 -216 c0 -10 7 -23 15 -30 17 -14 20 -61 4 -77 -18 -18 -49 -3
-50 26 -2 22 -2 23 -6 4 -2 -12 3 -34 13 -50 l17 -28 -27 30 c-20 21 -29 26
-35 17 -11 -18 -51 -24 -45 -7 7 16 -32 9 -43 -8 -4 -6 0 -8 10 -4 31 12 18
-61 -14 -82 -27 -16 -79 -5 -79 17 0 10 -13 28 -29 41 -27 23 -28 26 -15 45
26 37 18 56 -23 57 -24 1 -29 3 -15 6 24 5 29 18 11 29 -8 4 -8 9 1 18 8 8 13
7 21 -4 8 -11 12 -12 16 -2 2 7 22 12 44 12 21 0 39 5 39 10 0 13 87 13 94 1
4 -5 0 -12 -6 -15 -7 -3 1 -3 17 1 17 3 36 12 44 19 18 16 41 1 41 -26z m23 5
c4 -8 2 -17 -3 -20 -6 -4 -10 3 -10 14 0 25 6 27 13 6z m-443 -35 c0 -5 -4
-10 -10 -10 -5 0 -10 5 -10 10 0 6 5 10 10 10 6 0 10 -4 10 -10z m401 -343
c-8 -8 -14 -7 -23 2 -11 10 -9 11 6 5 15 -6 17 -4 11 6 -6 9 -4 11 4 5 9 -5
10 -10 2 -18z m248 -90 c19 -24 -10 -36 -39 -17 -13 9 -13 11 0 20 20 13 26
12 39 -3z m-229 -17 c8 -5 11 -10 5 -10 -5 0 -17 5 -25 10 -8 5 -10 10 -5 10
6 0 17 -5 25 -10z"/>
<path d="M7078 4433 c7 -3 16 -2 19 1 4 3 -2 6 -13 5 -11 0 -14 -3 -6 -6z"/>
<path d="M7130 4431 c0 -5 5 -13 10 -16 6 -3 10 -2 10 4 0 5 -4 13 -10 16 -5
3 -10 2 -10 -4z"/>
<path d="M7306 4411 c-4 -7 -5 -15 -2 -18 9 -9 19 4 14 18 -4 11 -6 11 -12 0z"/>
<path d="M8720 5161 c-29 -7 -100 -59 -100 -73 0 -5 4 -6 10 -3 6 3 7 -1 3
-10 -4 -13 -8 -14 -14 -4 -6 10 -13 8 -28 -9 -11 -13 -22 -23 -25 -23 -18 2
-26 -1 -41 -15 -9 -9 -26 -18 -38 -19 -12 -1 -25 -3 -29 -4 -5 0 -8 -19 -8
-41 0 -45 16 -51 66 -25 33 17 100 20 109 5 3 -5 16 -10 27 -10 12 0 37 -5 55
-12 29 -10 36 -10 51 5 15 16 15 19 2 27 -8 5 -26 10 -40 10 -53 2 -115 12
-132 21 -15 8 -16 14 -7 30 5 11 18 23 27 26 25 9 52 34 47 43 -3 5 4 6 16 3
12 -4 25 0 30 8 5 9 9 9 9 2 0 -6 8 -9 19 -6 10 3 22 0 25 -6 18 -28 106 9
106 45 0 30 -80 50 -140 35z"/>
<path d="M7724 5105 c-8 -21 0 -38 19 -41 19 -2 20 0 11 34 -7 25 -22 29 -30
7z"/>
<path d="M7220 5091 c0 -6 -7 -11 -15 -11 -8 0 -15 -9 -15 -21 0 -11 -4 -17
-10 -14 -5 3 -10 -1 -10 -9 0 -9 8 -16 18 -16 10 0 23 -5 29 -11 6 -6 16 -8
21 -5 14 8 9 89 -6 94 -7 2 -12 -1 -12 -7z"/>
<path d="M4008 5073 c7 -3 16 -2 19 1 4 3 -2 6 -13 5 -11 0 -14 -3 -6 -6z"/>
<path d="M6135 4919 c-3 -4 2 -10 11 -13 23 -9 54 -7 54 3 0 11 -59 20 -65 10z"/>
<path d="M7650 4900 c0 -5 7 -10 16 -10 8 0 12 5 9 10 -3 6 -10 10 -16 10 -5
0 -9 -4 -9 -10z"/>
<path d="M6000 4812 c0 -4 -13 -16 -30 -25 -16 -10 -33 -29 -36 -42 -4 -16
-11 -22 -20 -18 -9 3 -13 11 -10 19 6 15 -35 44 -62 44 -22 0 -52 -30 -52 -51
0 -14 150 -119 170 -119 15 0 12 21 -6 41 -12 13 -13 22 -5 37 14 27 69 72 87
72 21 0 17 28 -5 40 -23 12 -31 13 -31 2z"/>
<path d="M6473 4673 c-17 -6 -16 -21 2 -39 19 -20 8 -44 -21 -44 -36 0 -19
-27 32 -51 46 -20 60 -35 22 -23 -20 6 -21 5 -6 -10 20 -20 25 -20 44 -1 24
23 54 19 54 -7 0 -13 4 -29 9 -37 7 -11 11 -10 20 5 6 11 11 15 11 9 0 -5 7 1
16 13 12 17 13 26 5 36 -7 8 -9 31 -5 57 4 31 1 50 -9 64 -14 18 -18 19 -51 7
-33 -12 -40 -11 -72 7 -19 12 -36 21 -37 20 -1 0 -8 -3 -14 -6z"/>
<path d="M6025 4609 c-4 -6 -1 -15 6 -20 21 -13 31 -11 27 8 -4 20 -24 28 -33
12z"/>
<path d="M7078 4603 c7 -3 16 -2 19 1 4 3 -2 6 -13 5 -11 0 -14 -3 -6 -6z"/>
<path d="M6462 4500 c0 -14 2 -19 5 -12 2 6 2 18 0 25 -3 6 -5 1 -5 -13z"/>
<path d="M4214 4166 c-8 -22 3 -33 18 -18 9 9 9 15 0 24 -9 9 -13 7 -18 -6z"/>
<path d="M4184 4148 c2 -13 15 -46 28 -74 21 -46 25 -51 46 -43 29 11 28 27
-3 41 -15 7 -34 30 -45 55 -20 47 -33 56 -26 21z"/>
<path d="M4577 4154 c-4 -4 -7 -14 -7 -23 0 -11 3 -12 11 -4 6 6 10 16 7 23
-2 6 -7 8 -11 4z"/>
<path d="M3867 4119 c-18 -11 -14 -29 6 -29 7 0 6 4 -3 10 -13 8 -12 10 3 10
9 0 17 5 17 10 0 12 0 12 -23 -1z"/>
<path d="M3974 4087 c-3 -9 -12 -13 -20 -10 -10 4 -12 0 -8 -11 4 -11 -1 -22
-12 -31 -11 -8 -14 -15 -8 -15 5 0 15 5 21 11 7 7 15 5 28 -7 23 -24 36 -1 22
40 -13 40 -15 42 -23 23z"/>
<path d="M4175 4081 c-3 -5 -1 -12 5 -16 5 -3 10 1 10 9 0 18 -6 21 -15 7z"/>
<path d="M4530 4055 c0 -23 -5 -46 -12 -53 -9 -9 -6 -12 15 -12 24 0 27 4 27
33 0 18 -7 42 -15 53 -13 18 -14 16 -15 -21z"/>
<path d="M4416 3963 c-11 -11 -6 -41 8 -46 7 -3 16 -15 19 -27 5 -21 3 -22
-34 -17 -21 3 -39 1 -39 -4 0 -5 5 -9 12 -9 6 0 8 -3 5 -6 -4 -4 -13 -1 -22 6
-21 18 -30 6 -10 -14 9 -9 13 -20 10 -26 -3 -5 3 -10 15 -10 12 0 18 5 15 10
-3 6 4 10 17 10 48 0 67 11 74 44 3 17 13 39 22 49 20 23 11 30 -21 18 -20 -8
-25 -15 -20 -28 6 -14 2 -13 -16 4 -13 12 -20 26 -17 32 7 11 -8 24 -18 14z
m17 -110 c-7 -2 -19 -2 -25 0 -7 3 -2 5 12 5 14 0 19 -2 13 -5z"/>
<path d="M4033 3906 c6 -38 4 -45 -13 -49 -12 -3 -17 -1 -14 5 8 12 -55 67
-78 68 -10 0 -18 -3 -18 -7 0 -5 -3 -18 -6 -31 -6 -21 -4 -22 18 -17 19 5 32
0 52 -20 14 -14 26 -23 26 -20 0 3 14 -2 30 -10 17 -9 36 -13 42 -9 7 4 8 3 4
-4 -9 -15 7 -15 21 -1 9 9 6 16 -10 30 -12 9 -18 21 -14 25 4 5 11 4 15 -2 4
-6 16 -10 27 -11 11 0 28 -3 37 -7 13 -6 15 -3 11 13 -4 15 -1 21 11 21 16 0
20 -10 17 -42 -1 -10 1 -18 6 -18 4 0 19 -3 31 -7 19 -5 23 -2 21 13 -2 10 0
25 5 32 5 8 4 18 -3 25 -8 8 -11 8 -11 -1 0 -22 -30 -12 -42 13 -14 30 -28 32
-35 5 -4 -16 -14 -20 -44 -20 -34 0 -40 4 -55 35 -23 49 -38 45 -31 -9z"/>
<path d="M4327 3943 c-4 -3 -7 -12 -7 -19 0 -9 6 -10 25 -1 14 7 25 15 25 20
0 9 -34 9 -43 0z"/>
<path d="M4626 3907 c-14 -54 2 -73 52 -60 26 6 26 6 3 14 -12 5 -19 13 -16
19 3 5 -1 10 -9 10 -9 0 -13 6 -10 14 3 8 1 17 -4 20 -5 3 -12 -4 -16 -17z"/>
<path d="M8476 3722 c-3 -5 4 -16 15 -25 24 -21 30 -21 23 -2 -5 11 -1 14 12
9 15 -5 16 -4 5 4 -8 6 -21 8 -29 4 -10 -3 -13 -1 -8 6 4 7 3 12 -3 12 -5 0
-12 -4 -15 -8z"/>
<path d="M7800 3711 l-24 -7 24 -17 c13 -9 19 -17 12 -17 -7 0 -10 -4 -7 -10
3 -5 2 -10 -3 -10 -6 0 -8 -9 -5 -19 3 -11 -2 -33 -10 -49 -14 -29 -14 -30 9
-28 15 1 25 9 28 22 4 13 13 21 23 20 10 0 19 9 23 24 6 26 3 25 114 29 l29 1
-22 19 c-15 13 -18 20 -9 24 27 9 -1 17 -78 21 -43 2 -90 1 -104 -3z"/>
<path d="M8410 3710 c0 -5 5 -10 11 -10 5 0 7 5 4 10 -3 6 -8 10 -11 10 -2 0
-4 -4 -4 -10z"/>
<path d="M8445 3710 c-3 -5 -1 -10 4 -10 6 0 11 5 11 10 0 6 -2 10 -4 10 -3 0
-8 -4 -11 -10z"/>
<path d="M7682 3697 c24 -9 47 -47 28 -47 -4 0 -7 -8 -5 -17 14 -68 16 -73 35
-73 19 0 24 13 23 73 0 9 5 17 11 17 6 0 3 5 -7 11 -12 7 -16 17 -12 30 6 17
1 19 -47 18 -48 -1 -50 -2 -26 -12z"/>
<path d="M7600 3690 c0 -13 11 -13 30 0 12 8 11 10 -7 10 -13 0 -23 -4 -23
-10z"/>
<path d="M7564 3682 c-9 -5 -9 -10 1 -19 7 -7 17 -8 26 -2 11 7 11 9 1 9 -7 0
-10 5 -7 10 7 12 -5 13 -21 2z"/>
<path d="M7640 3680 c-12 -8 -11 -10 8 -10 12 0 22 5 22 10 0 13 -11 13 -30 0z"/>
<path d="M7760 3679 c0 -5 5 -7 10 -4 6 3 10 8 10 11 0 2 -4 4 -10 4 -5 0 -10
-5 -10 -11z"/>
<path d="M7515 3662 c-5 -4 -11 -13 -13 -21 -2 -11 0 -12 11 -3 8 7 23 9 33 5
18 -6 18 -6 2 10 -19 19 -19 19 -33 9z"/>
<path d="M7413 3653 c9 -2 23 -2 30 0 6 3 -1 5 -18 5 -16 0 -22 -2 -12 -5z"/>
<path d="M7635 3650 c3 -5 12 -7 20 -3 21 7 19 13 -6 13 -11 0 -18 -4 -14 -10z"/>
<path d="M7640 3597 c0 -8 9 -17 21 -20 15 -4 19 -1 17 11 -4 21 -38 29 -38 9z"/>
<path d="M7680 3549 c0 -5 5 -7 10 -4 6 3 10 8 10 11 0 2 -4 4 -10 4 -5 0 -10
-5 -10 -11z"/>
</g>
</svg>
